<svg id="57339723-c86b-4b3f-8370-425352ac6372" data-name="e3e3a87c-a688-4f6b-b847-1efb0e79f051" xmlns="http://www.w3.org/2000/svg" viewBox="0 0 371.31 569.01"><defs><style>.\34 0d861b4-9f74-4cf7-aee3-d34805fb68aa{fill:#1d1d1d;}.\33 7f3f166-0621-441e-869b-dedee4fb2aff{fill:#fff;}</style></defs><title>hangman</title><path class="40d861b4-9f74-4cf7-aee3-d34805fb68aa" d="M444.66,454.54h0Z" transform="translate(-425.41 -51.99)"/><path class="40d861b4-9f74-4cf7-aee3-d34805fb68aa" d="M443.2,267.86v-0.18a4.36,4.36,0,0,1-.5-0.38Z" transform="translate(-425.41 -51.99)"/><path class="40d861b4-9f74-4cf7-aee3-d34805fb68aa" d="M444.45,237.83l0-.18C444.38,237.66,444.26,237.62,444.45,237.83Z" transform="translate(-425.41 -51.99)"/><path class="40d861b4-9f74-4cf7-aee3-d34805fb68aa" d="M445.06,337a0.84,0.84,0,0,0,.1.51A2.42,2.42,0,0,1,445.06,337Z" transform="translate(-425.41 -51.99)"/><path class="40d861b4-9f74-4cf7-aee3-d34805fb68aa" d="M445.73,509.56v-0.13a0.84,0.84,0,0,1-.12.32Z" transform="translate(-425.41 -51.99)"/><path class="40d861b4-9f74-4cf7-aee3-d34805fb68aa" d="M445.39,509c0.15-.66.28,0.18,0.32,0.47a4.18,4.18,0,0,0,.17-2.2C445.57,507.23,445.62,508.63,445.39,509Z" transform="translate(-425.41 -51.99)"/><path class="40d861b4-9f74-4cf7-aee3-d34805fb68aa" d="M446.58,609.38l-0.12-.3A1.24,1.24,0,0,0,446.58,609.38Z" transform="translate(-425.41 -51.99)"/><path class="40d861b4-9f74-4cf7-aee3-d34805fb68aa" d="M460.22,334.1a1,1,0,0,0,.07.45A0.86,0.86,0,0,0,460.22,334.1Z" transform="translate(-425.41 -51.99)"/><path class="40d861b4-9f74-4cf7-aee3-d34805fb68aa" d="M446.89,593.62l-0.49-.17A0.67,0.67,0,0,0,446.89,593.62Z" transform="translate(-425.41 -51.99)"/><path class="40d861b4-9f74-4cf7-aee3-d34805fb68aa" d="M442.69,267.3l-0.19-.22A1,1,0,0,0,442.69,267.3Z" transform="translate(-425.41 -51.99)"/><path class="40d861b4-9f74-4cf7-aee3-d34805fb68aa" d="M444.76,210.09a0.71,0.71,0,0,0,.37-0.15,0.69,0.69,0,0,1,0-.08Z" transform="translate(-425.41 -51.99)"/><path class="40d861b4-9f74-4cf7-aee3-d34805fb68aa" d="M452.55,70.24a0.56,0.56,0,0,0-.19.07l0.35,0.56A1.76,1.76,0,0,0,452.55,70.24Z" transform="translate(-425.41 -51.99)"/><path class="40d861b4-9f74-4cf7-aee3-d34805fb68aa" d="M446.89,172a0.62,0.62,0,0,0-.17-0.13,26.72,26.72,0,0,0-.18,4.56l0.6,0.13Z" transform="translate(-425.41 -51.99)"/><path class="40d861b4-9f74-4cf7-aee3-d34805fb68aa" id="beam-1" d="M460.91,130.41l-1.21,4.06c-0.56-13,.66-19.1-0.32-30.24l0.26,0.62c0.28-1.62-2.44-2.54.88-20.46h0.12a3.41,3.41,0,0,1,.06-1.86L460,85.62a38,38,0,0,1-1-6,0.91,0.91,0,0,1,.58-0.76l-0.2-6.07L460.15,71c-0.42-1.86-2.07-1-1.15-6-1.14,1.87-.69-2.46-1.27-1.85,0.14-.25.35-0.82,0.55-1.28-0.13-3-.45-8.51-1-9.88,0,0-2.41,11.55-3.63,14.65,0.31-4.15-.14-1.1-0.52-0.28l0.28,0.28c-0.28,2.49-1,2.49-1.2,3.73a0.54,0.54,0,0,0,.2-0.07l-0.1-.16c0.13-.12.22,0,0.29,0.08s0.28,0.08.23,0.76l-0.08-.13a27.05,27.05,0,0,1-.06,3.62h-0.6c1.15,1.84-1.75,12.4-1.79,14.88-0.76,2.49.19,5.58-.19,8.68-0.19,5-.88,2.48-1.4,5-0.38,3.11.7-.63,0.74,0.62l-0.84,3.72c-0.07-2.16-.44-1-0.67-0.59-0.1,3.22-1.21,8.29,0,9.28-0.58,4.34-1.06,4.35-1.12,6.21,0.22-.62.42-1.86,0.66-1.87-0.53,1.74.13,0.83,0.25,0.12,0.52,2.65-2.19,13.76-.87,14.31h-0.24c1,0.62,1.94-.37,2.48,1.48l-0.44,1.23,0.42,1.86c-0.32,1.25-.58.63-0.7,0.63,0.45,3-.09,7.26-0.22,10.93l2.68-3.89c-0.62,3.1-1.88,8.68-1,9.3l-0.9,1.86c-1.72,6.21.75,4.33,0.23,6.81l-1,3.12v-3.1a59.72,59.72,0,0,1-1.46,6.82h0a0.45,0.45,0,0,1,.15-0.3V172c0.49,0.38.83,2,.79,4.18-0.14,3.1.59,5.53-.45,10.49l1,1.24-0.6,3.72h-0.8c0-3.65-.26-10.51-0.3-15.19l-0.37-.08c0,2.78.36,5.94,0.28,7.78-0.16.9-1,3.19-1.53,1.52l0.78,1.72a123.62,123.62,0,0,1-.78,19l0.4-.84c0.24,1.92.47,3.83-.18,4.37-0.13,5.81-.64,11.83-1.65,15.61l0.94,0.83c0,1.23-1.48,3.07-.16,3.67l0.42,2.62c-0.07,1.68.47,2.71-.07,4.62h0a1.24,1.24,0,0,1-.11.36h0.08c-0.42,3.8.84,0,.3,4.31-0.67,1.4,1.2,1.54,1,3.66l-1.35,2.13c-0.78,3.84.58,4.5,0.58,10.06-0.48,2.67-1.63,4-2.66,2.19,1.24,2.43.81,1.11,1.4,4.33-0.51.5-.62,0.15-1.08-0.56-0.6,2.87.46,1.77,0.43,3.93,1,0.63,2.49,1.35,2.55,2l0.3-.84a18.54,18.54,0,0,1,.27,7.45l-0.48-.1,0.24,2.83-0.62.18,0.19,4,0.17-.55a28.25,28.25,0,0,1,0,5.85l-0.34-.06c-1.07,5,.33,9.17.44,15.06l-0.7-.77c-0.7,2,1.08.55,0.73,2.94l-0.86.12c1.13,2.1-.24,2.72-0.67,4.17l1.13-.68-0.24,2.73c-0.37,3-1.42,1.85-2,1.41l0.89,2-1,.4c1.16,1.5-.19,1.5.43,4.12-0.38.22-.59-0.45-0.75,0.44l1.4,4.32-0.62-2.61,1.45,0.32c1.1,2.72-.16,3.68.25,5.62l-0.43-1.34c0.35,3.17-.27,3.33-0.59,5.12,0.27-.55.67-1.4,0.86-0.12,0.08,0.94-.51.51-0.67,1.4,1,0.21,1.48,2.48,1,4.54a0.5,0.5,0,0,1-.36-0.2,2.34,2.34,0,0,1,.17,1.71l-1.08-.54,1,1.76c-0.29,1.17.49,2.89-.24,2.73l-0.22-.67-0.26,8.89-0.86.12c1.18,0.88-.45,4.84,1,4.55-0.81,1.68.57,6.6-1.1,5.62-0.13,5.84,1.48,9,.66,16.1-1.42,2.53-1,9.46-1.11,14,0.59,8.91,1.12,14.66,1.58,23.77-2,5.48.68,13.66-.44,19.55l0.78,1.61c-1.25,3.92.28,9.9-.94,15.39a16.72,16.72,0,0,1,.48,2.37,0.87,0.87,0,0,1,.68-0.75c-0.35,1.57.09,4.74-.91,4.52l-0.1-.4c-1-.23.47,4.76-0.4,6.51l1.07-1-0.18,3-0.2-.8c2.37,12.91-1,18.74,1.15,30.87-1.16-1.61.61,2.39-.66,2.55-1.6,3.06.35,5.66,0.77,8.17a0.3,0.3,0,0,1,.23.17v4.5c-1.61-2.62,1.33,3.16,0,.75-1.2,11.43,0,26.34-.53,39.57l0.41-.58c-0.08,3.35.42,7.53-.24,10.07s1,5.57,1.12,6.56c0.71,2.79-.7,5.33-0.63,4.13,0.2,3,1.67,5.79,1,9.93-1.36,1.41,1.34,11.29-.2,11.42h0.13c-1.08,5.3.76,10.3-.22,16a1.31,1.31,0,0,1-.22-0.3L451.25,621l5.13-3.31,4.16-10.07-0.9-27.3,1.63-21.79-0.55-53-1.16-3.79c2-10.42-.3-23.78,1.14-35l-1-.23c-0.06-3.16.56-3,.73-3.73-0.22-29.43-1.55-59.74-.29-86.22,0.66-2.55.27-10.32,1-12.32-1.22-8.6-1.21-17.72-1.08-26.33l0.11,0.33L460,334.18c0.08-.17.2-0.19,0.28-0.06-0.88-4.58,0-11.78.35-17.39l0.11,0.33c0.18-32.69-1.68-63-.29-95.46,1.63-15.07-.62-32.61.74-49.91C462.12,168.49,461.37,133.5,460.91,130.41Z" transform="translate(-425.41 -51.99)"/><path class="40d861b4-9f74-4cf7-aee3-d34805fb68aa" d="M459.57,78.91V79C460,79,459.84,78.84,459.57,78.91Z" transform="translate(-425.41 -51.99)"/><path class="40d861b4-9f74-4cf7-aee3-d34805fb68aa" d="M448.11,151.18v-0.23l-0.59.86Z" transform="translate(-425.41 -51.99)"/><path class="40d861b4-9f74-4cf7-aee3-d34805fb68aa" d="M447.76,104.89c-0.13,2.08,0,2.18.14,1.88A6.71,6.71,0,0,0,447.76,104.89Z" transform="translate(-425.41 -51.99)"/><path class="40d861b4-9f74-4cf7-aee3-d34805fb68aa" d="M458.77,61.92c0-1.09-.22-0.68-0.5,0,0,1.11.08,1.89,0.08,1.89C458.45,63.16,458.67,62.55,458.77,61.92Z" transform="translate(-425.41 -51.99)"/><path class="40d861b4-9f74-4cf7-aee3-d34805fb68aa" d="M453.08,66.38L452.74,66C452.82,66.68,453,66.65,453.08,66.38Z" transform="translate(-425.41 -51.99)"/><path class="40d861b4-9f74-4cf7-aee3-d34805fb68aa" d="M534,64h0Z" transform="translate(-425.41 -51.99)"/><path class="40d861b4-9f74-4cf7-aee3-d34805fb68aa" d="M655.8,62.53h0.12a4.73,4.73,0,0,1,.25-0.5Z" transform="translate(-425.41 -51.99)"/><path class="40d861b4-9f74-4cf7-aee3-d34805fb68aa" d="M675.39,63.78l0.12,0C675.5,63.71,675.53,63.59,675.39,63.78Z" transform="translate(-425.41 -51.99)"/><path class="40d861b4-9f74-4cf7-aee3-d34805fb68aa" d="M610.64,64.4a0.4,0.4,0,0,0-.33.1A1.11,1.11,0,0,1,610.64,64.4Z" transform="translate(-425.41 -51.99)"/><path class="40d861b4-9f74-4cf7-aee3-d34805fb68aa" d="M498.06,65.06h0.09l-0.21-.12Z" transform="translate(-425.41 -51.99)"/><path class="40d861b4-9f74-4cf7-aee3-d34805fb68aa" d="M498.45,64.72c0.43,0.15-.12.28-0.31,0.32a1.84,1.84,0,0,0,1.44.17C499.58,64.9,498.67,65,498.45,64.72Z" transform="translate(-425.41 -51.99)"/><path class="40d861b4-9f74-4cf7-aee3-d34805fb68aa" d="M432.92,65.92l0.2-.12A0.7,0.7,0,0,0,432.92,65.92Z" transform="translate(-425.41 -51.99)"/><path class="40d861b4-9f74-4cf7-aee3-d34805fb68aa" d="M612.57,79.55l-0.29.07A0.4,0.4,0,0,0,612.57,79.55Z" transform="translate(-425.41 -51.99)"/><path class="40d861b4-9f74-4cf7-aee3-d34805fb68aa" d="M443.2,66.23l0.11-.49A0.93,0.93,0,0,0,443.2,66.23Z" transform="translate(-425.41 -51.99)"/><path class="40d861b4-9f74-4cf7-aee3-d34805fb68aa" d="M656.16,62l0.14-.19A0.88,0.88,0,0,0,656.16,62Z" transform="translate(-425.41 -51.99)"/><path class="40d861b4-9f74-4cf7-aee3-d34805fb68aa" d="M693.5,64.1a1,1,0,0,0,.1.37h0Z" transform="translate(-425.41 -51.99)"/><path class="40d861b4-9f74-4cf7-aee3-d34805fb68aa" d="M784.76,71.89a0.76,0.76,0,0,0,0-.19L784.4,72A0.85,0.85,0,0,0,784.76,71.89Z" transform="translate(-425.41 -51.99)"/><path class="40d861b4-9f74-4cf7-aee3-d34805fb68aa" d="M718.34,66.22a0.67,0.67,0,0,0,.08-0.17,11.46,11.46,0,0,0-3-.18l-0.09.6Z" transform="translate(-425.41 -51.99)"/><path class="40d861b4-9f74-4cf7-aee3-d34805fb68aa" id="beam-3" d="M745.5,80.24L742.85,79c8.5-.56,12.46.66,19.74-0.32l-0.4.26c1.06,0.28,1.66-2.44,13.35.88V80a1.49,1.49,0,0,1,1.21.06l-2-.74a17.07,17.07,0,0,1,3.88-1,0.74,0.74,0,0,1,.49.58l4-.2,1.21,0.78c1.21-.42.66-2.07,3.9-1.15-1.22-1.14,1.61-.69,1.21-1.27,0.16,0.14.53,0.35,0.83,0.55,1.93-.13,5.55-0.45,6.45-1,0,0-7.54-2.41-9.56-3.63,2.71,0.31.72-.14,0.18-0.52l-0.18.28c-1.62-.28-1.62-1-2.44-1.2a0.75,0.75,0,0,0,0,.2l0.1-.1a0.2,0.2,0,0,1,0,.28h0c0,0.15-.06.28-0.5,0.23l0.08-.08A11.55,11.55,0,0,1,782,72V71.4c-1.2,1.15-8.09-1.75-9.71-1.79-1.62-.76-3.64.19-5.67-0.19-3.23-.19-1.62-0.88-3.24-1.4-2-.38.41,0.7-0.4,0.74l-2.43-.84c1.41-.07.65-0.44,0.39-0.67-2.1-.1-5.41-1.21-6,0-2.83-.58-2.84-1.06-4-1.12a3,3,0,0,1,1.22.66c-1.13-.53-0.54.13-0.08,0.25-1.73.52-9-2.19-9.34-.87V65.91c-0.4,1,.24,1.94-1,2.48L740.83,68l-1.21.42c-0.81-.32-0.41-0.58-0.41-0.7-2,.45-4.74-0.09-7.13-0.22l2.54,2.68c-2-.62-5.67-1.88-6.07-1l-1.21-.9c-4-1.72-2.83.75-4.45,0.23l-2-1h2A27.77,27.77,0,0,1,718.44,66h0a0.28,0.28,0,0,1,.2.15h-0.28c-0.25.49-1.3,0.83-2.73,0.79-2-.14-3.61.59-6.84-0.45l-0.81,1-2.43-.6v-0.8c2.38,0,6.86-.26,9.92-0.3l0-.37c-1.81,0-3.88.36-5.07,0.28-0.58-.16-2.08-1-1-1.53l-1.12.78a52.93,52.93,0,0,1-12.41-.78l0.55,0.4c-1.25.24-2.5,0.47-2.85-.18-3.79-.13-7.72-0.64-10.19-1.65l-0.54.94c-0.8,0-2-1.48-2.39-.16l-1.71.42c-1.09-.07-1.77.47-3-0.07h0l-0.24-.11a0.29,0.29,0,0,0,0,.08c-2.48-.42,0,0.84-2.81.3-0.91-.67-1,1.2-2.39,1L669,63.79c-2.51-.78-2.93.58-6.56,0.58-1.74-.48-2.59-1.63-1.43-2.66-1.59,1.24-.72.81-2.83,1.4-0.32-.51-0.1-0.62.37-1.08-1.87-.6-1.15.46-2.56,0.43-0.41,1-.88,2.49-1.34,2.55l0.55,0.3a8,8,0,0,1-4.86.27l0.07-.48-1.85.24-0.12-.62-2.64.19,0.36,0.17a12.07,12.07,0,0,1-3.82,0V64.74c-3.28-1.07-6,.33-9.83.44l0.5-.7c-1.31-.7-0.36,1.08-1.92.73l0-.82c-1.37,1.13-1.78-.24-2.72-0.67l0.44,1.13-1.78-.24c-2-.37-1.2-1.42-0.92-2l-1.34.89-0.26-1c-1,1.16-1-.19-2.69.43-0.14-.38.29-0.59-0.29-0.75l-2.82,1.4,1.7-.62-0.21,1.45c-1.77,1.1-2.4-.16-3.67.25l0.87-.43c-2.07.35-2.18-.27-3.34-0.59,0.36,0.27.91,0.67,0.08,0.86-0.61.08-.33-0.51-0.91-0.67-0.14,1-1.62,1.48-3,1a0.6,0.6,0,0,1,.13-0.36,1.07,1.07,0,0,1-1.12.17l0.35-1.08-1.15,1c-0.77-.29-1.88.49-1.78-0.24L607,64.1l-5.8-.26,0-.84c-0.57,1.18-3.16-.45-3,1-1.09-.81-4.31.57-3.67-1.1-3.81-.13-5.87,1.48-10.5.66-1.65-1.42-6.17-1-9.15-1.11C569,63,565.28,63.57,559.34,64c-3.57-2-8.91.68-12.76-.44l-1,.78c-2.56-1.25-6.46.28-10-.94A7.67,7.67,0,0,1,534,64a0.71,0.71,0,0,1,.49.68c-1-.35-3.1.09-3-0.91l0.26-.1c0.15-1-3.11.47-4.25-.4l0.63,1.07-1.94-.18,0.52-.2c-8.43,2.37-12.23-1-20.15,1.15,1-1.16-1.56.61-1.66-.66-2-1.6-3.7.35-5.33,0.77a0.33,0.33,0,0,1-.11.23l-2.86-.15c1.71-1.61-2.06,1.33-.49,0-7.46-1.2-17.19,0-25.82-.53l0.38,0.41c-2.19-.08-4.91.42-6.57-0.24s-3.63,1-4.28,1.12c-1.82.71-3.48-.7-2.7-0.63-2,.2-3.78,1.67-6.48,1-0.92-1.36-7.37,1.34-7.45-.2v0.13c-3.46-1.08-6.72.76-10.45-.22a1,1,0,0,1,.2-0.22l-7.58,4.66,2.16,5.13,6.57,4.16L452,79,466.1,80.6l34.6-.6,2.47-1.16c6.8,2,15.52-.3,22.84,1.14l0.15-1c2.06-.06,1.92.56,2.43,0.73,19.21-.22,39-1.55,56.27-0.29,1.67,0.66,6.74.27,8,1,5.61-1.22,11.56-1.21,17.18-1.08l-0.21.11,2.65-.19a0.17,0.17,0,0,1,0,.24l0,0c3-.88,7.69,0,11.35.35L623.7,80c21.33,0.18,41.14-1.68,62.3-.29,9.84,1.63,21.28-.62,32.57.74C720.64,81.45,743.48,80.71,745.5,80.24Z" transform="translate(-425.41 -51.99)"/><path class="40d861b4-9f74-4cf7-aee3-d34805fb68aa" id="arm-2" d="M779.1,78.91H779C779,79.33,779.15,79.17,779.1,78.91Z" transform="translate(-425.41 -51.99)"/><path class="40d861b4-9f74-4cf7-aee3-d34805fb68aa" d="M731.94,67.44h0.15l-0.56-.59Z" transform="translate(-425.41 -51.99)"/><path class="40d861b4-9f74-4cf7-aee3-d34805fb68aa" d="M762.15,67.09c-1.36-.13-1.42,0-1.23.14A2.91,2.91,0,0,0,762.15,67.09Z" transform="translate(-425.41 -51.99)"/><path class="40d861b4-9f74-4cf7-aee3-d34805fb68aa" d="M790.19,78.11c0.71,0,.44-0.22,0-0.5l-1.23.08C789.38,77.79,789.78,78,790.19,78.11Z" transform="translate(-425.41 -51.99)"/><path class="40d861b4-9f74-4cf7-aee3-d34805fb68aa" d="M787.28,72.41l0.22-.34C787.09,72.16,787.1,72.28,787.28,72.41Z" transform="translate(-425.41 -51.99)"/><path class="37f3f166-0621-441e-869b-dedee4fb2aff" d="M532.67,72.67L452,153.33" transform="translate(-425.41 -51.99)"/><path class="40d861b4-9f74-4cf7-aee3-d34805fb68aa" d="M514.26,101.45c0.06,0,0-.07,0,0h0Z" transform="translate(-425.41 -51.99)"/><path class="40d861b4-9f74-4cf7-aee3-d34805fb68aa" d="M488.83,129h0l0.3,0.41Z" transform="translate(-425.41 -51.99)"/><path class="40d861b4-9f74-4cf7-aee3-d34805fb68aa" d="M483.69,132.33h-0.06C483.71,132.4,483.79,132.49,483.69,132.33Z" transform="translate(-425.41 -51.99)"/><path class="40d861b4-9f74-4cf7-aee3-d34805fb68aa" d="M497.32,117.83v-0.14A0.25,0.25,0,0,1,497.32,117.83Z" transform="translate(-425.41 -51.99)"/><path class="40d861b4-9f74-4cf7-aee3-d34805fb68aa" d="M521.3,92.9h0Z" transform="translate(-425.41 -51.99)"/><path class="40d861b4-9f74-4cf7-aee3-d34805fb68aa" d="M521.46,93.23c-0.2,0-.17-0.23-0.16-0.3-0.3-.09-0.41,0-0.43.19A1.25,1.25,0,0,0,521.46,93.23Z" transform="translate(-425.41 -51.99)"/><path class="40d861b4-9f74-4cf7-aee3-d34805fb68aa" d="M534.85,78.14v0.13A0.48,0.48,0,0,0,534.85,78.14Z" transform="translate(-425.41 -51.99)"/><path class="40d861b4-9f74-4cf7-aee3-d34805fb68aa" d="M486.18,107.53a1.14,1.14,0,0,0,0-.12,0.08,0.08,0,0,0,0,.11h0Z" transform="translate(-425.41 -51.99)"/><path class="40d861b4-9f74-4cf7-aee3-d34805fb68aa" d="M532.4,80.16l0.32,0.37A2.79,2.79,0,0,0,532.4,80.16Z" transform="translate(-425.41 -51.99)"/><path class="40d861b4-9f74-4cf7-aee3-d34805fb68aa" d="M489.11,129.39l0.1,0.17Z" transform="translate(-425.41 -51.99)"/><path class="40d861b4-9f74-4cf7-aee3-d34805fb68aa" d="M479.53,136a2.8,2.8,0,0,0-.28-0.24h0Z" transform="translate(-425.41 -51.99)"/><path class="40d861b4-9f74-4cf7-aee3-d34805fb68aa" d="M454.19,150.36l0.15,0.12-0.17-.33A0.27,0.27,0,0,0,454.19,150.36Z" transform="translate(-425.41 -51.99)"/><path class="40d861b4-9f74-4cf7-aee3-d34805fb68aa" d="M472.63,139.93l0.1,0.14a1.2,1.2,0,0,0,.77-0.52l-0.41-.44Z" transform="translate(-425.41 -51.99)"/><path class="40d861b4-9f74-4cf7-aee3-d34805fb68aa" id="beam-2" d="M456.82,135.92l1.43,0.28c-1.45,2.24-3.17,2.24-4.06,4.51l-0.1-.27c-0.43,0,1.36,2.08-3.52,2.28l-0.09-.09c-0.07.1,0.1,0.27-.31,0.22l1,0.08a3.18,3.18,0,0,1-.16,1.53,1.12,1.12,0,0,1-.51-0.3l-0.72,1-0.82-.29c0,0.56,1.32,1.61,0,1.66,1.07,0.54.14,0.83,0.63,1.16l-0.57-.21a3.14,3.14,0,0,0-.67,2.14,24.39,24.39,0,0,1,4.65.49c-0.81.37-.06,0.25,0.33,0.41l-0.16-.24c0.55-.16,1.06.36,1.38,0.32l-0.15-.13v0.09a0.52,0.52,0,0,1-.19-0.22c-0.11-.1-0.18-0.21-0.06-0.27v0.07a1.13,1.13,0,0,1,.55-0.47l0.43,0.42c-0.55-1.07,3-.52,3.38-0.84,0.89,0.19.66-.92,1.37-1.09,0.84-.56,1,0.27,1.69.29,0.71-.17-0.59-0.41-0.44-0.61l1.12,0.07c-0.26.36,0.17,0.45,0.39,0.56,0.53-.38,2-0.32,1.32-1.31,1-.21,1.37.13,1.67-0.09a1.65,1.65,0,0,1-.73-0.2c0.62,0.13,0-.21-0.16-0.19,0-.75,3.5-0.4,2.65-1.41l0.17,0.17c-0.61-.78-1.42-1.32-1.55-2l0.49,0.14V143a0.8,0.8,0,0,1,.59.41c0.11-.75,1.09-1,1.7-1.39l-2.45-1.35c0.88,0,2.56.1,2-.6l0.9,0.37c2.1,0.34.09-1.14,0.8-1.13l1.14,0.25-0.45.43a7.08,7.08,0,0,1,2,.07h0a0.25,0.25,0,0,1-.15-0.06v-0.08a0.82,0.82,0,0,1,0-1.15c0.54-.34.37-1.2,1.81-1.17l-0.54-.89,1-.1,0.57,0.57c-0.55.48-1.31,1.67-1.94,2.36l0.25,0.27c0.39-.39.59-1.09,0.91-1.3a1.49,1.49,0,0,1,1.3.87l-0.31-.8a5.43,5.43,0,0,1,3.25-2.15l-0.4-.16c0.11-.44.21-0.87,0.75-0.49a4.48,4.48,0,0,1,3.38-1l-0.55-.78c0.21-.14,1.48.61,0.63-0.41l0.08-.67c0.29-.19,0-0.71.71-0.6h0.13l-0.06-.05c0.83-.24-0.6-0.59.4-0.82,0.67,0.28-.63-1.06-0.18-1.21l1.26,0.65c1.09,0,.23-1,1-1.84a2.66,2.66,0,0,1,2.19,1.57c-0.53-1.22-.41-0.73-0.38-1.61a1.63,1.63,0,0,1,.68.84c0.83,0-.07-0.58.25-0.86a13.2,13.2,0,0,1-1.51-2.09L487,126.8a1,1,0,0,1,.71-1.22l0.15,0,0.33,0.36,0.23-.57,0.46,0.41,0.44-.71h-0.2a1.21,1.21,0,0,1,.85-0.81l0.23,0.25c1.47,0,1.07-1.53,1.82-2.45l0.39,0.6c0.78,0.21-.68-0.84-0.1-0.93l0.63,0.59c-0.5-1.1.56-.22,1.06-0.12l-0.89-.7,0.56-.22c0.69-.16,1.27.74,1.62,1.22l-0.34-.92,0.76,0.65c-0.61-1,.34-0.08.28-0.89a1.18,1.18,0,0,0,.59.47l-0.38-1.6,0.07,0.81-1-1.07c-0.39-1.17.63-.41,0.62-1L496,119.4c0.2-.7.66-0.28,1.14-0.31a0.74,0.74,0,0,1-.63-0.59c0.08-.19.43,0.29,0.67,0.28-0.65-.71-0.7-1.4-0.08-1.37a1.58,1.58,0,0,1,.22.28c0-.19-0.17-0.4.12-0.37l0.68,0.84-0.48-1c0.37,0,.07-0.75.56-0.22l0.06,0.25,1.44-1.08,0.63,0.59c-0.71-1,1-.37-0.08-1.37,0.81,0.33.53-1.34,1.57,0,0.92-.74.23-2.32,1.81-2.75,1.36,0.64,2-.66,2.77-1.2,0.84-1.68,1.28-2.87,2.25-4.49,2.17,0.62,1.46-2.42,3.08-2.46l-0.33-.78c1.44,0.33,1.21-1.6,2.85-1.52a1.72,1.72,0,0,1,0-.67,1.06,1.06,0,0,1-.59-0.38c0.47,0,.61-0.73,1.28,0v0.13c0.67,0.74.35-1,1.2-.64l-0.89-.62,0.55-.29v0.26c0.16-3.5,3.38-1.94,3.57-5.19,0.59,1.05-.09-0.77.83,0.11,1.56,0.7.56-1,.61-1.7a0.79,0.79,0,0,1-.14-0.19l0.73-.51c0.77,1.51-.5-1.39.13-0.08,2.47-.77,3.72-3.75,6-5.23l-0.37-.21c0.53-.42.77-1.37,1.6-1.26s0-1.53.14-1.72c-0.11-.9,1.25-0.26,1-0.14,0.28-.56-0.36-2,0.68-2.14,1.16,0.76.66-2.55,1.76-1.48l-0.09-.1c1.52,0,.92-2,2.43-2.11a1.54,1.54,0,0,1,.11.2l-1.59-5L529.1,70l-4.37-1.52L521.5,73l-4.24,2-7.13,7.91,0.28,1.36c-2.91,0-3.16,3.59-5.77,4.16l0.67,0.74c-0.41.49-.81,0-1,0-4,4.33-7.37,9.56-12,12.43-0.83-.1-1.65,1.27-2.43,1.06a7.59,7.59,0,0,1-3,4.5V107l-0.44.71a0.44,0.44,0,0,1-.2-0.19c0,1.27-1.66,1.68-2.71,2.22v-0.12c-4.76,4.51-7.75,10.12-13.33,13.74-3.29,1-4.19,5.06-7.6,6.56C461.36,129.66,456.93,135.15,456.82,135.92Z" transform="translate(-425.41 -51.99)"/><path class="40d861b4-9f74-4cf7-aee3-d34805fb68aa" d="M450.46,144.16h0C450.18,143.85,450.26,144,450.46,144.16Z" transform="translate(-425.41 -51.99)"/><path class="40d861b4-9f74-4cf7-aee3-d34805fb68aa" d="M468.81,142h0l0.54,0.3Z" transform="translate(-425.41 -51.99)"/><path class="40d861b4-9f74-4cf7-aee3-d34805fb68aa" d="M462.5,148.83c0.39-.2.33-0.29,0.17-0.36A0.36,0.36,0,0,0,462.5,148.83Z" transform="translate(-425.41 -51.99)"/><path class="40d861b4-9f74-4cf7-aee3-d34805fb68aa" d="M448.62,147.14c-0.18.13,0.06,0.25,0.35,0.36l0.21-.32C449,147.19,448.78,147.12,448.62,147.14Z" transform="translate(-425.41 -51.99)"/><path class="40d861b4-9f74-4cf7-aee3-d34805fb68aa" d="M453.28,150.53l0.19,0.29A0.25,0.25,0,0,0,453.28,150.53Z" transform="translate(-425.41 -51.99)"/><path class="40d861b4-9f74-4cf7-aee3-d34805fb68aa" d="M726,96.25h0Z" transform="translate(-425.41 -51.99)"/><path class="40d861b4-9f74-4cf7-aee3-d34805fb68aa" d="M727.47,117.47h0Z" transform="translate(-425.41 -51.99)"/><path class="40d861b4-9f74-4cf7-aee3-d34805fb68aa" d="M726.22,120.88h0A0.44,0.44,0,1,0,726.22,120.88Z" transform="translate(-425.41 -51.99)"/><path class="40d861b4-9f74-4cf7-aee3-d34805fb68aa" d="M725.6,109.6l-0.1-.06A0.22,0.22,0,0,1,725.6,109.6Z" transform="translate(-425.41 -51.99)"/><path class="40d861b4-9f74-4cf7-aee3-d34805fb68aa" d="M724.94,90h0Z" transform="translate(-425.41 -51.99)"/><path class="40d861b4-9f74-4cf7-aee3-d34805fb68aa" d="M725.28,90.07A0.3,0.3,0,0,1,725,90c-0.27.08-.29,0.17-0.17,0.25A1.48,1.48,0,0,0,725.28,90.07Z" transform="translate(-425.41 -51.99)"/><path class="40d861b4-9f74-4cf7-aee3-d34805fb68aa" d="M724.08,78.65h0Z" transform="translate(-425.41 -51.99)"/><path class="40d861b4-9f74-4cf7-aee3-d34805fb68aa" d="M710.45,109.94l-0.07-.05A0.1,0.1,0,0,0,710.45,109.94Z" transform="translate(-425.41 -51.99)"/><path class="40d861b4-9f74-4cf7-aee3-d34805fb68aa" d="M723.77,80.44h0Z" transform="translate(-425.41 -51.99)"/><path class="40d861b4-9f74-4cf7-aee3-d34805fb68aa" d="M728,117.53h0Z" transform="translate(-425.41 -51.99)"/><path class="40d861b4-9f74-4cf7-aee3-d34805fb68aa" d="M725.9,124h0Z" transform="translate(-425.41 -51.99)"/><path class="40d861b4-9f74-4cf7-aee3-d34805fb68aa" d="M718.11,139.93h0.19l-0.35-.06A0.3,0.3,0,0,0,718.11,139.93Z" transform="translate(-425.41 -51.99)"/><path class="40d861b4-9f74-4cf7-aee3-d34805fb68aa" d="M723.78,128.36H724a0.47,0.47,0,0,0,.18-0.52h-0.6Z" transform="translate(-425.41 -51.99)"/><path class="40d861b4-9f74-4cf7-aee3-d34805fb68aa" id="rope" d="M709.76,133.09l1.21-.46c0.56,1.48-.66,2.17.32,3.44L711,136c-0.28.18,2.44,0.29-.88,2.33H710c0,0.07.26,0.07-.06,0.21l0.74-.35a2.51,2.51,0,0,1,1,.68,1.82,1.82,0,0,1-.58.09l0.2,0.69-0.78.21c0.42,0.21,2.07.11,1.15,0.68,1.14-.21.69,0.28,1.27,0.21l-0.55.15a1.79,1.79,0,0,0,1,1.12,26.64,26.64,0,0,1,3.63-1.67c-0.31.47,0.14,0.12,0.52,0h-0.28a5,5,0,0,1,1.2-.42h-0.1a0.9,0.9,0,0,1-.29,0c-0.15,0-.28,0-0.23-0.09H718a0.39,0.39,0,0,1,.06-0.41h0.6c-1.15-.21,1.75-1.41,1.79-1.69,0.76-.28-0.19-0.63.19-1,0.19-.56.88-0.28,1.4-0.56s-0.7.07-.74-0.07l0.84-.42c0.07,0.25.44,0.11,0.67,0.07,0.1-.37,1.21-0.94,0-1.05a10.38,10.38,0,0,0,1.12-.71,2.21,2.21,0,0,1-.66.21c0.53-.2-0.13-0.09-0.25,0-0.52-.3,2.19-1.56.87-1.63h0.24a12,12,0,0,1-2.48-.17l0.44-.14-0.42-.21a1.33,1.33,0,0,1,.7-0.07c-0.45-.34.09-0.82,0.22-1.24l-2.68.44c0.62-.35,1.88-1,1-1.06l0.9-.21c1.72-.71-0.75-0.49-0.23-0.77l1-.35v0.35a7,7,0,0,1,1.46-.77h0a0.37,0.37,0,0,1-.15,0h0c-0.49,0-.83-0.23-0.79-0.48s-0.59-.63.45-1.19l-1-.14,0.6-.42H724a15.18,15.18,0,0,0,.3,1.73h0.37a6.26,6.26,0,0,1-.28-0.88,2.38,2.38,0,0,1,1.53-.17l-0.78-.2c-0.09-1.05-.13-1.06.78-2.16l-0.4.1c-0.24-.22-0.47-0.44.18-0.5a2.55,2.55,0,0,1,1.65-1.77l-0.94-.09c0-.14,1.48-0.35.16-0.42l-0.42-.3c0.07-.19-0.47-0.31.07-0.52h0c0.42-.43-0.84,0-0.3-0.49,0.67-.16-1.2-0.18-1-0.42l1.35-.24c0.78-.44-0.58-0.51-0.58-1.14a4.32,4.32,0,0,1,2.66-.25,2.32,2.32,0,0,1-1.4-.49A2.78,2.78,0,0,1,728,118c0.6-.33-0.46-0.2-0.43-0.45a22.59,22.59,0,0,1-2.55-.23l-0.3.1c-0.51-.26-0.75-0.54-0.27-0.85h0.48l-0.24-.32h0.62l-0.19-.46-0.17.06a0.44,0.44,0,0,1,0-.62l0,0h0.34c1.07-.57-0.33-1-0.44-1.71l0.7,0.09c0.7-.23-1.08-0.06-0.73-0.33h0.86c-1.13-.24.24-0.31,0.67-0.47l-1.13.08,0.24-.31a3.4,3.4,0,0,1,2-.16l-0.89-.23h1c-1.16-.17.19-0.17-0.43-0.47a2,2,0,0,0,.75-0.05l-1.4-.49,0.62,0.3h-1.45c-1.1-.31.16-0.42-0.25-0.64l0.43,0.15c-0.35-.36.27-0.38,0.59-0.58a1.23,1.23,0,0,1-.86,0,2.44,2.44,0,0,1,.67-0.16c-1,0-1.48-.28-1-0.52h0.36c-0.16-.06-0.41-0.09-0.17-0.19l1.08,0.06-1-.2c0.29-.13-0.49-0.33.24-0.31l0.22,0.08,0.26-1H727c-1.18-.1.45-0.55-1-0.52,0.81-.19-0.57-0.75,1.1-0.64,0.13-.66-1.48-1-0.66-1.83,1.42-.29,1-1.07,1.11-1.59a25,25,0,0,1-1.58-2.7c2-.62-0.68-1.55.44-2.22l-0.78-.18c1.25-.45-0.28-1.12.94-1.75a1.57,1.57,0,0,1-.48-0.27,1.7,1.7,0,0,1-.68.08c0.35-.18-0.09-0.54.91-0.51h0.1c1,0-.47-0.54.4-0.74l-1.07.11,0.18-.34L726,95c-2.37-1.47,1-2.13-1.15-3.51,1.16,0.18-.61-0.27.66-0.29,1.6-.35-0.35-0.64-0.77-0.93h-0.23l0.15-.5c1.61,0.3-1.33-.36,0-0.09,1.2-1.3,0-3,.53-4.5l-0.41.07c0.08-.38-0.42-0.86.24-1.14s-1-.63-1.12-0.75c-0.71-.32.7-0.61,0.63-0.47-0.2-.34-1.67-0.66-1-1.13,1.36-.16-1.34-1.28.2-1.3H723.6c1.08-.6-0.76-1.17.22-1.82H724l-4.66-1.32-5.13.38-4.16,1.14L711,82l-1.63,2.48,0.55,6,1.16,0.43c-2,1.18.3,2.7-1.14,4h1c0.06,0.36-.56.34-0.73,0.42,0.22,3.35,1.55,6.79.29,9.8-0.66.29-.27,1.17-1,1.4a2.88,2.88,0,0,1,1.08,3h-0.11l0.19,0.46a0.75,0.75,0,0,1-.28,0c0.88,0.52,0,1.34-.35,2h-0.11c-0.18,3.72,1.68,7.16.29,10.85-1.62,1.71.62,3.71-.74,5.67C708.55,128.76,709.29,132.74,709.76,133.09Z" transform="translate(-425.41 -51.99)"/><path class="40d861b4-9f74-4cf7-aee3-d34805fb68aa" d="M711.09,138.94h0C710.67,138.93,710.83,138.95,711.09,138.94Z" transform="translate(-425.41 -51.99)"/><path class="40d861b4-9f74-4cf7-aee3-d34805fb68aa" d="M722.56,130.73h0l0.59-.1Z" transform="translate(-425.41 -51.99)"/><path class="40d861b4-9f74-4cf7-aee3-d34805fb68aa" d="M722.91,136c0.13-.24,0-0.25-0.14-0.21a0.17,0.17,0,0,0,.12.21h0Z" transform="translate(-425.41 -51.99)"/><path class="40d861b4-9f74-4cf7-aee3-d34805fb68aa" d="M711.89,140.87c0,0.12.22,0.08,0.5,0a2.19,2.19,0,0,1-.08-0.21C712.21,140.73,712,140.8,711.89,140.87Z" transform="translate(-425.41 -51.99)"/><path class="40d861b4-9f74-4cf7-aee3-d34805fb68aa" d="M717.59,140.37h0.34A0.38,0.38,0,0,0,717.59,140.37Z" transform="translate(-425.41 -51.99)"/><path class="40d861b4-9f74-4cf7-aee3-d34805fb68aa" d="M717.34,266.19h0Z" transform="translate(-425.41 -51.99)"/><path class="40d861b4-9f74-4cf7-aee3-d34805fb68aa" d="M718.8,325.46a0.33,0.33,0,0,0,0,.06l0.5,0.12Z" transform="translate(-425.41 -51.99)"/><path class="40d861b4-9f74-4cf7-aee3-d34805fb68aa" d="M717.55,335l0,0.06C717.62,335,717.74,335.06,717.55,335Z" transform="translate(-425.41 -51.99)"/><path class="40d861b4-9f74-4cf7-aee3-d34805fb68aa" d="M716.94,303.49a0.15,0.15,0,0,0-.1-0.16A0.38,0.38,0,0,1,716.94,303.49Z" transform="translate(-425.41 -51.99)"/><path class="40d861b4-9f74-4cf7-aee3-d34805fb68aa" d="M716.27,248.72h0l0.12-.1Z" transform="translate(-425.41 -51.99)"/><path class="40d861b4-9f74-4cf7-aee3-d34805fb68aa" d="M716.61,248.91c-0.15.21-.28-0.06-0.32-0.15a0.52,0.52,0,0,0-.17.7A1.45,1.45,0,0,0,716.61,248.91Z" transform="translate(-425.41 -51.99)"/><path class="40d861b4-9f74-4cf7-aee3-d34805fb68aa" d="M715.41,217l0.12,0.1A0.44,0.44,0,0,0,715.41,217Z" transform="translate(-425.41 -51.99)"/><path class="40d861b4-9f74-4cf7-aee3-d34805fb68aa" id="rope" d="M701.78,304.43a0.17,0.17,0,0,0-.07-0.14A0.13,0.13,0,0,0,701.78,304.43Z" transform="translate(-425.41 -51.99)"/><path class="40d861b4-9f74-4cf7-aee3-d34805fb68aa" d="M715.11,222l0.49,0.05A1.78,1.78,0,0,0,715.11,222Z" transform="translate(-425.41 -51.99)"/><path class="40d861b4-9f74-4cf7-aee3-d34805fb68aa" d="M719.31,325.64l0.19,0.07Z" transform="translate(-425.41 -51.99)"/><path class="40d861b4-9f74-4cf7-aee3-d34805fb68aa" d="M717.24,343.81a1.8,1.8,0,0,0-.37,0h0.37Z" transform="translate(-425.41 -51.99)"/><path class="40d861b4-9f74-4cf7-aee3-d34805fb68aa" d="M709.45,388.21h0.19l-0.35-.18A0.35,0.35,0,0,0,709.45,388.21Z" transform="translate(-425.41 -51.99)"/><path class="40d861b4-9f74-4cf7-aee3-d34805fb68aa" d="M715.11,355.89h0.17a2.82,2.82,0,0,0,.18-1.45h-0.6Z" transform="translate(-425.41 -51.99)"/><path class="40d861b4-9f74-4cf7-aee3-d34805fb68aa" id="body" d="M701.09,369.1l1.21-1.29c0.56,4.13-.66,6.06.32,9.6l-0.26-.2c-0.28.52,2.44,0.81-.88,6.5h-0.12c0,0.2.26,0.2-.06,0.59l0.74-1a5.28,5.28,0,0,1,1,1.89,0.83,0.83,0,0,1-.58.24l0.2,1.93-0.78.59c0.42,0.59,2.07.32,1.15,1.9,1.14-.59.69,0.78,1.27,0.59-0.14.08-.35,0.26-0.55,0.41,0.13,0.94.45,2.7,1,3.14a31.33,31.33,0,0,1,3.63-4.65c-0.31,1.32.14,0.35,0.52,0.09l-0.28-.09c0.28-.79,1-0.79,1.2-1.19h-0.2l0.1,0a0.34,0.34,0,0,1-.29,0c-0.15,0-.28,0-0.23-0.24h0.08a2.77,2.77,0,0,1,.06-1.15H710c-1.15-.59,1.75-3.94,1.79-4.72,0.76-.79-0.19-1.77.19-2.76,0.19-1.57.88-.79,1.4-1.58,0.38-1-.7.2-0.74-0.2l0.84-1.18c0.07,0.69.44,0.31,0.67,0.19,0.1-1,1.21-2.63,0-3,0.58-1.38,1.06-1.38,1.12-2a1.66,1.66,0,0,1-.66.59c0.53-.55-0.13-0.26-0.25,0-0.52-.84,2.19-4.37.87-4.54h0.24c-1-.2-1.94.12-2.48-0.47l0.44-.39-0.42-.59a0.57,0.57,0,0,1,.7-0.2c-0.45-1,.09-2.3.22-3.47l-2.68,1.23c0.62-1,1.88-2.76,1-3l0.9-.59c1.72-2-.75-1.38-0.23-2.16l1-1v1a9.94,9.94,0,0,1,1.46-2.16h0a0.22,0.22,0,0,1-.15.1v-0.14a1.2,1.2,0,0,1-.79-1.33c0.14-1-.59-1.76.45-3.33l-1-.39,0.6-1.18h0.8c0,1.16.26,3.34,0.3,4.82H716c0-.88-0.36-1.89-0.28-2.47,0.16-.28,1-1,1.53-0.48L716.3,351a12.9,12.9,0,0,1,.78-6l-0.4.27c-0.24-.61-0.47-1.22.18-1.39a8.92,8.92,0,0,1,1.65-5l-0.94-.26c0-.39,1.48-1,0.16-1.16l-0.42-.83c0.07-.53-0.47-0.86.07-1.47h0l0.11-.11h-0.08c0.42-1.21-.84,0-0.3-1.37,0.67-.44-1.2-0.49-1-1.16l1.35-.68c0.78-1.22-.58-1.43-0.58-3.19a2,2,0,0,1,2.66-.7c-1.24-.77-0.81-0.35-1.4-1.38a1.1,1.1,0,0,1,1.08.18c0.6-.91-0.46-0.56-0.43-1.25a8.62,8.62,0,0,1-2.55-.65l-0.3.27a2.07,2.07,0,0,1-.27-2.36h0.48l-0.24-.9,0.62-.06-0.19-1.28-0.17.18a2.92,2.92,0,0,1,0-1.86h0.34c1.07-1.6-.33-2.91-0.44-4.78l0.7,0.25c0.7-.64-1.08-0.17-0.73-0.93h0.86c-1.13-.67.24-0.86,0.67-1.32l-1.13.22,0.24-.87c0.37-1,1.42-.59,2-0.45l-0.89-.65,1-.13c-1.16-.47.19-0.47-0.43-1.31,0.38-.07.59,0.14,0.75-0.14l-1.4-1.37,0.62,0.83-1.45-.1c-1.1-.86.16-1.17-0.25-1.78l0.43,0.42c-0.35-1,.27-1.06.59-1.63-0.27.18-.67,0.44-0.86,0s0.51-.16.67-0.44c-1-.07-1.48-0.79-1-1.44a1,1,0,0,1,.36.06c-0.16-.17-0.41-0.25-0.17-0.54l1.08,0.17-1-.56c0.29-.37-0.49-0.92.24-0.87l0.22,0.21,0.26-2.82h0.86c-1.18-.28.45-1.54-1-1.44,0.81-.53-0.57-2.1,1.1-1.78,0.13-1.85-1.48-2.86-.66-5.11,1.42-.8,1-3,1.11-4.45-0.59-2.83-1.12-4.66-1.58-7.55,2-1.74-.68-4.34.44-6.21l-0.78-.51c1.25-1.24-.28-3.14.94-4.89a2.58,2.58,0,0,1-.48-0.75,0.8,0.8,0,0,1-.68.24c0.35-.5-0.09-1.51.91-1.43l0.1,0.13c1,0.07-.47-1.51.4-2.07l-1.07.3,0.18-.94,0.2,0.25c-2.37-4.1,1-6-1.15-9.8,1.16,0.51-.61-0.76.66-0.81,1.6-1-.35-1.8-0.77-2.59a0.53,0.53,0,0,1-.23-0.06L716,248c1.61,0.83-1.33-1,0-.24,1.2-3.63,0-8.36.53-12.56l-0.41.18c0.08-1.07-.42-2.39.24-3.2s-1-1.77-1.12-2.08c-0.71-.89.7-1.69,0.63-1.31-0.2-.95-1.67-1.84-1-3.15,1.36-.45-1.34-3.59.2-3.63H715c1.08-1.68-.76-3.27.22-5.08l0.22,0.1-4.66-3.69-5.13,1.05-4.16,3.2,0.9,8.67-1.63,6.92L701.29,250l1.16,1.2c-2,3.31.3,7.55-1.14,11.11l1,0.07a1.13,1.13,0,0,1-.73,1.18c0.22,9.35,1.55,19,.29,27.38-0.66.81-.27,3.28-1,3.91a18,18,0,0,1,1.08,8.36l-0.11-.1L702,304.4a0.29,0.29,0,0,1-.28,0c0.88,1.45,0,3.74-.35,5.52l-0.11-.1c-0.18,10.38,1.68,20,.29,30.31-1.62,4.79.62,10.35-.74,15.85C699.88,357,700.63,368.12,701.09,369.1Z" transform="translate(-425.41 -51.99)"/><path class="40d861b4-9f74-4cf7-aee3-d34805fb68aa" d="M702.43,385.46h0C702,385.41,702.16,385.48,702.43,385.46Z" transform="translate(-425.41 -51.99)"/><path class="40d861b4-9f74-4cf7-aee3-d34805fb68aa" d="M713.89,362.51v0.07l0.59-.27Z" transform="translate(-425.41 -51.99)"/><path class="40d861b4-9f74-4cf7-aee3-d34805fb68aa" d="M714.24,377.21c0.13-.66,0-0.69-0.14-0.6A0.76,0.76,0,0,0,714.24,377.21Z" transform="translate(-425.41 -51.99)"/><path class="40d861b4-9f74-4cf7-aee3-d34805fb68aa" d="M703.23,390.85c0,0.35.22,0.21,0.5,0,0-.35-0.08-0.6-0.08-0.6C703.55,390.46,703.33,390.65,703.23,390.85Z" transform="translate(-425.41 -51.99)"/><path class="40d861b4-9f74-4cf7-aee3-d34805fb68aa" d="M708.92,389.44l0.34,0.11A0.2,0.2,0,0,0,708.92,389.44Z" transform="translate(-425.41 -51.99)"/><path class="37f3f166-0621-441e-869b-dedee4fb2aff" d="M710.19,217c12.59,15.06,29.47,25.77,45.3,37.37s31.35,25,39.26,43" transform="translate(-425.41 -51.99)"/><path class="40d861b4-9f74-4cf7-aee3-d34805fb68aa" d="M740.07,234.17c0-.06-0.08,0,0,0h0Z" transform="translate(-425.41 -51.99)"/><path class="40d861b4-9f74-4cf7-aee3-d34805fb68aa" d="M772.32,256.28h0l0.38-.34Z" transform="translate(-425.41 -51.99)"/><path class="40d861b4-9f74-4cf7-aee3-d34805fb68aa" d="M776.46,261.48v0.07C776.53,261.46,776.62,261.37,776.46,261.48Z" transform="translate(-425.41 -51.99)"/><path class="40d861b4-9f74-4cf7-aee3-d34805fb68aa" d="M759.49,248.7h-0.14A0.26,0.26,0,0,1,759.49,248.7Z" transform="translate(-425.41 -51.99)"/><path class="40d861b4-9f74-4cf7-aee3-d34805fb68aa" d="M730.69,228.21h0a1.22,1.22,0,0,1,0-.13v0.13Z" transform="translate(-425.41 -51.99)"/><path class="40d861b4-9f74-4cf7-aee3-d34805fb68aa" d="M731,228a0.22,0.22,0,0,1-.28.19c-0.06.3,0,.41,0.24,0.41A1.25,1.25,0,0,0,731,228Z" transform="translate(-425.41 -51.99)"/><path class="40d861b4-9f74-4cf7-aee3-d34805fb68aa" d="M715.83,215.24h0Z" transform="translate(-425.41 -51.99)"/><path class="40d861b4-9f74-4cf7-aee3-d34805fb68aa" d="M751,261.28h-0.12a0.08,0.08,0,0,0,.11,0h0Z" transform="translate(-425.41 -51.99)"/><path class="40d861b4-9f74-4cf7-aee3-d34805fb68aa" d="M717.68,217.73l0.38-.31A2.85,2.85,0,0,0,717.68,217.73Z" transform="translate(-425.41 -51.99)"/><path class="40d861b4-9f74-4cf7-aee3-d34805fb68aa" d="M772.74,256l0.16-.12Z" transform="translate(-425.41 -51.99)"/><path class="40d861b4-9f74-4cf7-aee3-d34805fb68aa" d="M780.68,265.83a2.57,2.57,0,0,0-.24.29h0Z" transform="translate(-425.41 -51.99)"/><path class="40d861b4-9f74-4cf7-aee3-d34805fb68aa" d="M792.64,294.17l0.16-.1-0.36.06A0.29,0.29,0,0,0,792.64,294.17Z" transform="translate(-425.41 -51.99)"/><path class="40d861b4-9f74-4cf7-aee3-d34805fb68aa" d="M784.91,273.29l0.15-.09a1.36,1.36,0,0,0-.53-0.86l-0.46.38Z" transform="translate(-425.41 -51.99)"/><path class="40d861b4-9f74-4cf7-aee3-d34805fb68aa" d="M779.38,288.67l0.52-1.33c2,1.64,1.54,3.28,3.52,4.46h-0.28c0,0.2.53,0,1,.28s0.83,1.16.19,3.4l-0.11.06c0.07,0.09.28,0,.11,0.33l0.38-.86a2.85,2.85,0,0,1,1.36.5,1.19,1.19,0,0,1-.44.4l0.71,0.89-0.53.66c0.54,0.1,1.94-.77,1.51.47,0.88-.82.81,0.12,1.29-0.24-0.11.1-.25,0.29-0.39,0.45a3,3,0,0,0,1.75,1.25l0.73-1.63a16.94,16.94,0,0,1,1.3-2.46c0.08,0.89.22,0.14,0.49-.18l-0.28.08c0-.58.68-0.91,0.74-1.23l-0.17.1h0.1a0.51,0.51,0,0,1-.26.12c-0.13.08-.25,0.11-0.28,0h0.08a1.17,1.17,0,0,1-.3-0.68l0.53-.28c-1.2.23,0.33-3.11,0.06-3.6,0.38-.84-0.78-0.91-0.79-1.67-0.38-1,.47-0.92.63-1.65,0-.78-0.52.49-0.7,0.29L792,286l0.13-.56c0.32,0.35.49-.06,0.63-0.26-0.3-.63,0-2.18-1.13-1.68-0.06-1.11.34-1.39,0.15-1.77a1.63,1.63,0,0,1-.31.72c0.22-.62-0.21-0.07-0.22.12-0.73-.17,0-3.72-1.15-3l0.19-.15c-0.86.49-1.5,1.23-2.17,1.24l0.19-.48-0.57-.06a0.76,0.76,0,0,1,.47-0.54c-0.77-.23-0.91-1.27-1.31-2l-1.57,2.33c0.08-.89.3-2.62-0.45-2.17l0.44-.89c0.43-2.12-1.18-.21-1.13-0.94l0.3-1.15,0.43,0.51a7.77,7.77,0,0,1,.12-2.08h0a0.24,0.24,0,0,1-.07.15l-0.08,0a0.86,0.86,0,0,1-1.19-.15c-0.36-.58-1.24-0.46-1.22-2l-0.91.5-0.12-1,0.58-.56c0.51,0.61,1.75,1.48,2.48,2.2l0.28-.23c-0.42-.44-1.15-0.7-1.36-1a1.41,1.41,0,0,1,.89-1.29l-0.83.26a6.8,6.8,0,0,1-2.36-3.51l-0.15.42c-0.46-.13-0.92-0.26-0.55-0.81a5.14,5.14,0,0,1-1.35-3.54l-0.77.57c-0.16-.22.51-1.55-0.48-0.66l-0.71-.07c-0.22-.3-0.75,0-0.7-0.72h0v-0.08c-0.34-.86-0.56.64-0.9-0.4,0.22-.7-1,0.68-1.24.21l0.54-1.32c-0.12-1.13-1.12-.19-2-1a2.52,2.52,0,0,1,1.35-2.34c-1.2.6-.7,0.46-1.62,0.46a1.5,1.5,0,0,1,.78-0.75c-0.1-.86-0.59.11-0.93-0.21a12.69,12.69,0,0,1-2,1.69l0,0.34a1.06,1.06,0,0,1-1.4-.79l0.32-.36-0.62-.19,0.36-.5-0.79-.4v0.2a1.35,1.35,0,0,1-1-.79l0.22-.26c-0.18-1.5-1.74-1-2.8-1.62l0.56-.46c0.09-.81-0.75.78-0.94,0.2l0.5-.7c-1,.63-0.31-0.54-0.3-1.07l-0.57,1-0.32-.54c-0.28-.68.55-1.37,1-1.79l-0.88.44,0.53-.85c-1,.73-0.14-0.35-1-0.18a1.12,1.12,0,0,0,.38-0.66l-1.58.58,0.82-.17-0.92,1.12c-1.12.54-.53-0.59-1.1-0.51l0.48-.18c-0.75-.12-0.41-0.63-0.52-1.12a0.71,0.71,0,0,1-.49.71c-0.21-.05.22-0.48,0.16-0.72-0.61.75-1.3,0.88-1.38,0.26a1.51,1.51,0,0,1,.25-0.26c-0.18.06-.38,0.23-0.39-0.07l0.73-.8-0.9.61c0-.38-0.78,0-0.32-0.53l0.24-.09-1.36-1.31,0.48-.71c-0.84.85-.56-1-1.38,0.27,0.19-.86-1.45-0.34-0.31-1.58-0.92-.82-2.39.1-3.11-1.42,0.4-1.46-1-1.92-1.72-2.59-1.84-.59-3.12-0.84-4.9-1.57,0.24-2.26-2.67-1.09-3-2.7l-0.73.44c0.09-1.48-1.8-1-2-2.61a1.73,1.73,0,0,1-.67.1,1.05,1.05,0,0,1-.29.64c0-.47-0.83-0.5-0.19-1.27h0.13c0.63-.77-1-0.2-0.81-1.11l-0.49,1-0.37-.51,0.25-.07c-3.52.3-2.36-3.1-5.61-2.9,1-.71-0.76.18,0-0.84,0.53-1.63-1.09-.44-1.75-0.43a0.79,0.79,0,0,1-.17.16l-0.58-.67c1.43-.91-1.34.63-0.09-0.12a7.19,7.19,0,0,0-2.57-2.85,14.18,14.18,0,0,1-3-2.71l-0.2.38c-0.43-.51-1.37-0.71-1.28-1.53s-1.53,0-1.71-.09c-0.89.12-.25-1.25-0.13-1-0.55-.27-2,0.37-2.12-0.66,0.77-1.13-2.51-.7-1.41-1.77l-0.1.08c0.08-1.49-2-1-2-2.48l0.2-.1-2.51.66-2.55.62-3.47,3.83-0.86,2.19-0.83,2.22,0.73,0.63,1.66,1.32,1.65,1.31,0.77,0.57,1.13,2.28,1.18,2.25,1.4,1.2,3.12,2.53,3.15,2.43,1.45,1.07,1.36-.38c0.48,3,4.18,2.93,5.21,5.51l0.64-.76c0.57,0.36.16,0.83,0.19,1.07,5.14,3.6,11.07,6.16,14.78,10.37,0,0.84,1.57,1.46,1.49,2.26a7.77,7.77,0,0,1,5,2.28h-0.12l0.78,0.33a0.43,0.43,0,0,1-.15.23c1.26-.16,1.92,1.41,2.6,2.37h-0.12c2.55,2,5.29,3.64,7.86,5.42a25.17,25.17,0,0,1,6.82,6.39,7.92,7.92,0,0,0,3,3.58,8.68,8.68,0,0,1,3.16,3.75c-0.19.57,1,1.91,2.18,3.22A16,16,0,0,0,779.38,288.67Z" transform="translate(-425.41 -51.99)"/><path class="40d861b4-9f74-4cf7-aee3-d34805fb68aa" d="M785.62,296h0C785.23,296.13,785.39,296.09,785.62,296Z" transform="translate(-425.41 -51.99)"/><polygon class="40d861b4-9f74-4cf7-aee3-d34805fb68aa" points="361.5 225.52 361.52 225.57 361.86 225.05 361.5 225.52"/><path class="40d861b4-9f74-4cf7-aee3-d34805fb68aa" d="M793.12,285.41c-0.14-.45-0.24-0.41-0.35-0.27A0.41,0.41,0,0,0,793.12,285.41Z" transform="translate(-425.41 -51.99)"/><path class="40d861b4-9f74-4cf7-aee3-d34805fb68aa" d="M787.76,298.39c0.06,0.2.25,0,.45-0.21L788,297.9A3.2,3.2,0,0,0,787.76,298.39Z" transform="translate(-425.41 -51.99)"/><path class="40d861b4-9f74-4cf7-aee3-d34805fb68aa" d="M792.51,295.12l0.33-.09a0.24,0.24,0,0,0-.33.09h0Z" transform="translate(-425.41 -51.99)"/><path class="37f3f166-0621-441e-869b-dedee4fb2aff" d="M705.23,227c-13.54,4-23.85,14.67-34.37,24.09A249.26,249.26,0,0,1,637,276.54c-8.65,5.43-18.12,10.83-22.66,20" transform="translate(-425.41 -51.99)"/><path class="40d861b4-9f74-4cf7-aee3-d34805fb68aa" d="M682.16,250.7c0.06,0,0-.07,0,0h0Z" transform="translate(-425.41 -51.99)"/><path class="40d861b4-9f74-4cf7-aee3-d34805fb68aa" d="M653,276.45h0l0.23,0.46Z" transform="translate(-425.41 -51.99)"/><path class="40d861b4-9f74-4cf7-aee3-d34805fb68aa" d="M647.15,279h-0.06C647.16,279,647.22,279.16,647.15,279Z" transform="translate(-425.41 -51.99)"/><path class="40d861b4-9f74-4cf7-aee3-d34805fb68aa" d="M663.52,266.3s0-.08,0-0.14A0.26,0.26,0,0,1,663.52,266.3Z" transform="translate(-425.41 -51.99)"/><path class="40d861b4-9f74-4cf7-aee3-d34805fb68aa" d="M689.59,242.86h0l0.12,0.06Z" transform="translate(-425.41 -51.99)"/><path class="40d861b4-9f74-4cf7-aee3-d34805fb68aa" d="M689.71,243.19a0.22,0.22,0,0,1-.14-0.28v0c-0.28-.12-0.4-0.05-0.43.13A1.27,1.27,0,0,0,689.71,243.19Z" transform="translate(-425.41 -51.99)"/><path class="40d861b4-9f74-4cf7-aee3-d34805fb68aa" d="M704.82,232.79v0.13A0.5,0.5,0,0,0,704.82,232.79Z" transform="translate(-425.41 -51.99)"/><path class="40d861b4-9f74-4cf7-aee3-d34805fb68aa" d="M653.66,254.77s0-.07,0-0.11A0.08,0.08,0,0,0,653.66,254.77Z" transform="translate(-425.41 -51.99)"/><path class="40d861b4-9f74-4cf7-aee3-d34805fb68aa" d="M702.09,233.55l0.17,0.46A3.13,3.13,0,0,0,702.09,233.55Z" transform="translate(-425.41 -51.99)"/><path class="40d861b4-9f74-4cf7-aee3-d34805fb68aa" d="M653.24,276.94l0.07,0.18A1.51,1.51,0,0,0,653.24,276.94Z" transform="translate(-425.41 -51.99)"/><path class="40d861b4-9f74-4cf7-aee3-d34805fb68aa" d="M642.12,281.88a2.71,2.71,0,0,0-.23-0.3h0Z" transform="translate(-425.41 -51.99)"/><path class="40d861b4-9f74-4cf7-aee3-d34805fb68aa" d="M615.78,293l0.17,0.1-0.22-.29A0.27,0.27,0,0,0,615.78,293Z" transform="translate(-425.41 -51.99)"/><path class="40d861b4-9f74-4cf7-aee3-d34805fb68aa" d="M634.45,284.19l0.07,0.16a1.18,1.18,0,0,0,.86-0.33l-0.3-.52Z" transform="translate(-425.41 -51.99)"/><path class="40d861b4-9f74-4cf7-aee3-d34805fb68aa" id="arm-1" d="M619.33,277.61l1.47,0.4c-2,2.21-3.89,2.23-5.18,4.78l-0.07-.29c-0.24,0,.07.58-0.22,1.19a2.32,2.32,0,0,1-1,1,14.57,14.57,0,0,1-2.86,1l-0.09-.08c-0.09.14,0.1,0.29-.35,0.33l1.08-.13a4.18,4.18,0,0,1-.2,1.76,1,1,0,0,1-.57-0.2l-0.75,1.36-0.92-.06c0.08,0.65,1.57,1.37.13,1.93,1.22,0.22.25,0.88,0.83,1.06H610c-0.26.71-.63,2.09-0.26,2.64,0,0,.87-0.36,1.9-0.66a9.26,9.26,0,0,1,2.93-.45c-0.74.59,0,.27,0.41,0.33l-0.21-.2c0.52-.29,1.12.11,1.42,0l-0.17-.1,0.06,0.08a0.51,0.51,0,0,1-.23-0.18c-0.13-.08-0.22-0.17-0.1-0.26v0.06a1.21,1.21,0,0,1,.49-0.57l0.49,0.35c-0.35-.48.37-0.77,1.24-0.88a8.85,8.85,0,0,0,2-.29c0.89,0.16.6-.91,1.28-1.09,0.82-.53,1,0.29,1.66.34,0.68-.13-0.57-0.42-0.43-0.62l1.08,0.12c-0.24.33,0.17,0.45,0.38,0.57,0.51-.33,1.93-0.1,1.28-1.14,1-.08,1.3.3,1.6,0.13a1.74,1.74,0,0,1-.69-0.29c0.59,0.21,0-.2-0.14-0.21,0.06-.75,3.35.14,2.63-1l0.14,0.19c-0.5-.86-1.22-1.51-1.26-2.16l0.46,0.21V286a0.82,0.82,0,0,1,.51.5c0.21-.71,1.19-0.75,1.86-1l-2.16-1.77c0.87,0.16,2.48.57,2.1-.21l0.81,0.55c2,0.76.3-1.1,1-.93l1.06,0.49-0.53.32a6.86,6.86,0,0,1,1.92.5h0a0.25,0.25,0,0,1-.13-0.09l0.06-.07a0.81,0.81,0,0,1,.27-1.11c0.6-.21.62-1.08,2-0.73l-0.32-1,1,0.11,0.42,0.68c-0.65.35-1.66,1.34-2.43,1.87l0.18,0.32c0.47-.3.81-0.93,1.16-1.06a1.49,1.49,0,0,1,1.07,1.14l-0.12-.85a5.73,5.73,0,0,1,3.71-1.41L641,282c0.21-.41.42-0.82,0.87-0.33a4.83,4.83,0,0,1,3.64-.38l-0.37-.88c0.24-.1,1.35.88,0.73-0.29l0.23-.65c0.33-.13.21-0.7,0.84-0.47h0l0.12,0V279c0.89-.09-0.48-0.7.58-0.75,0.62,0.39-.4-1.17.08-1.24l1.13,0.87c1.1,0.19.45-1,1.4-1.67a2.58,2.58,0,0,1,1.89,1.92c-0.29-1.31-.27-0.8-0.06-1.67a1.56,1.56,0,0,1,.52,1c0.84,0.14,0-.59.43-0.82a13,13,0,0,1-1.12-2.33l-0.31-.14a1,1,0,0,1,.87-1.12h0.23l0.26,0.4,0.34-.54,0.39,0.48,0.57-.65-0.19-.07a1.29,1.29,0,0,1,1-.69l0.19,0.28c1.48,0.25,1.34-1.4,2.25-2.22l0.29,0.66c0.75,0.31-.55-0.93,0-1l0.54,0.67c-0.33-1.16.6-.15,1.1,0l-0.79-.81,0.6-.16c0.72-.08,1.17.9,1.45,1.43l-0.2-1,0.67,0.74c-0.45-1.11.36,0,.42-0.87a1.14,1.14,0,0,0,.53.54l-0.2-1.69,0,0.83-0.84-1.19c-0.23-1.22.7-.35,0.77-0.91v0.51c0.3-.68.71-0.22,1.21-0.19a0.72,0.72,0,0,1-.55-0.66c0.11-.18.4,0.34,0.65,0.35-0.56-.79-0.51-1.48.11-1.39a1.52,1.52,0,0,1,.19.31c0-.19-0.12-0.42.17-0.36l0.58,0.91-0.35-1c0.38,0.08.17-.75,0.6-0.17v0.26l1.61-1,0.56,0.65c-0.6-1,1.07-.29.09-1.4,0.78,0.4.7-1.31,1.61,0.1,1-.69.51-2.33,2.16-2.67,1.32,0.74,2.13-.55,3-1.07,1-1.67,1.58-2.88,2.68-4.47,2.17,0.7,1.64-2.4,3.27-2.38l-0.29-.8c1.43,0.39,1.29-1.56,2.93-1.4a1.7,1.7,0,0,1,0-.67,1.07,1.07,0,0,1-.57-0.41c0.47,0,.64-0.7,1.28.07v0.13c0.63,0.77.39-1,1.23-.58l-0.86-.66,0.56-.26v0.26c0.34-3.47,3.41-1.68,3.8-4.83,0.51,1.09,0-.77.8,0.19,1.47,0.86.61-1,.72-1.59a0.82,0.82,0,0,1-.12-0.2l0.75-.41c0.61,1.57-.36-1.42.13-0.06,2.44-.4,3.94-3.06,6.3-3.89l-0.31-.29c0.55-.28.94-1.11,1.68-0.77s0.34-1.42.47-1.57c0.1-.88,1.2.16,1,0.19,0.37-.42.15-2,1.11-1.77,0.82,1.12,1.3-2.08,2-.7v-0.12c1.29,0.63,1.44-1.42,2.75-.86a1.72,1.72,0,0,1,0,.22s0.09-1.26.25-2.54,0.38-2.58.38-2.58l-1.06-2.35-1.1-2.34s-0.84-.82-1.74-1.62-1.83-1.58-1.83-1.58-1.47.81-2.88,1.65l-1.8,1.22c-0.51.33-.83,0.57-0.83,0.57l-2.63.48-2.6.59-0.45.3-1.13.81c-1,.66-2.14,1.58-3.32,2.51-2.33,1.87-4.48,3.81-4.48,3.81l0.1,1.42c-3-.12-3.67,3.52-6.36,4l0.63,0.77c-0.46.48-.83,0-1.07,0-4.4,4.28-7.84,9.3-12.66,11.69-0.8-.17-1.73,1.09-2.47.81a7.06,7.06,0,0,1-3.33,4.09v-0.13l-0.5.65a0.44,0.44,0,0,1-.18-0.21c-0.17,1.24-1.82,1.44-2.91,1.81V256.5c-5.17,3.73-9,8.7-15.11,11-3.34.24-5.06,3.91-8.9,4.75-0.55-.24-2.3.8-4,2.11A15.76,15.76,0,0,0,619.33,277.61Z" transform="translate(-425.41 -51.99)"/><path class="40d861b4-9f74-4cf7-aee3-d34805fb68aa" d="M611.29,287.27h0C611,287,611.07,287.12,611.29,287.27Z" transform="translate(-425.41 -51.99)"/><polygon class="40d861b4-9f74-4cf7-aee3-d34805fb68aa" points="204.96 233.42 204.92 233.44 205.39 233.83 204.96 233.42"/><path class="40d861b4-9f74-4cf7-aee3-d34805fb68aa" d="M623.74,291.09c0.36-.17.3-0.25,0.15-0.34A0.31,0.31,0,0,0,623.74,291.09Z" transform="translate(-425.41 -51.99)"/><path class="40d861b4-9f74-4cf7-aee3-d34805fb68aa" d="M609.51,291.28c-0.17.22,0.1,0.25,0.42,0.26l0.19-.44C610,291.18,609.68,291.2,609.51,291.28Z" transform="translate(-425.41 -51.99)"/><path class="40d861b4-9f74-4cf7-aee3-d34805fb68aa" d="M614.91,293.41l0.25,0.24a0.24,0.24,0,0,0-.24-0.24h0Z" transform="translate(-425.41 -51.99)"/><path class="37f3f166-0621-441e-869b-dedee4fb2aff" d="M710.45,389.48A144.37,144.37,0,0,1,736,480.66" transform="translate(-425.41 -51.99)"/><path class="40d861b4-9f74-4cf7-aee3-d34805fb68aa" d="M730.9,411.16s0,0,0,0h0Z" transform="translate(-425.41 -51.99)"/><path class="40d861b4-9f74-4cf7-aee3-d34805fb68aa" d="M742.2,442.56h0Z" transform="translate(-425.41 -51.99)"/><path class="40d861b4-9f74-4cf7-aee3-d34805fb68aa" d="M741.9,448.08h0C742,448.09,742.09,448.08,741.9,448.08Z" transform="translate(-425.41 -51.99)"/><path class="40d861b4-9f74-4cf7-aee3-d34805fb68aa" d="M737.54,431a0.18,0.18,0,0,0-.12-0.06A0.24,0.24,0,0,1,737.54,431Z" transform="translate(-425.41 -51.99)"/><path class="40d861b4-9f74-4cf7-aee3-d34805fb68aa" d="M725.76,402.79h0l0.08-.11Z" transform="translate(-425.41 -51.99)"/><path class="40d861b4-9f74-4cf7-aee3-d34805fb68aa" d="M726.11,402.73a0.23,0.23,0,0,1-.32.08h0c-0.18.24-.15,0.37,0,0.43A1.27,1.27,0,0,0,726.11,402.73Z" transform="translate(-425.41 -51.99)"/><path class="40d861b4-9f74-4cf7-aee3-d34805fb68aa" d="M716,388.08h0Z" transform="translate(-425.41 -51.99)"/><path class="40d861b4-9f74-4cf7-aee3-d34805fb68aa" d="M723.07,435.51l-0.09,0A0.09,0.09,0,0,0,723.07,435.51Z" transform="translate(-425.41 -51.99)"/><path class="40d861b4-9f74-4cf7-aee3-d34805fb68aa" d="M717.31,390.56l0.43-.24A3.17,3.17,0,0,0,717.31,390.56Z" transform="translate(-425.41 -51.99)"/><path class="40d861b4-9f74-4cf7-aee3-d34805fb68aa" d="M742.72,442.56h0Z" transform="translate(-425.41 -51.99)"/><path class="40d861b4-9f74-4cf7-aee3-d34805fb68aa" d="M742.27,453l-0.37.07h0Z" transform="translate(-425.41 -51.99)"/><path class="40d861b4-9f74-4cf7-aee3-d34805fb68aa" d="M735.53,477.55h0.19l-0.34-.11A0.27,0.27,0,0,0,735.53,477.55Z" transform="translate(-425.41 -51.99)"/><path class="40d861b4-9f74-4cf7-aee3-d34805fb68aa" d="M740.85,459.93H741a1,1,0,0,0,.11-0.81h-0.6Z" transform="translate(-425.41 -51.99)"/><path class="40d861b4-9f74-4cf7-aee3-d34805fb68aa" id="leg-2" d="M727.25,467.65l1.18-.69c0.67,2.08-.59,3.07.4,4.85l-0.26-.1c-0.29.24,2.46,0.45-.9,3.26h-0.12c0,0.1.26,0.11-.07,0.29l0.76-.47a2.64,2.64,0,0,1,.92,1,1.35,1.35,0,0,1-.58.1l0.16,1-0.79.27c0.41,0.31,2.06.25,1.11,1,1.16-.25.67,0.43,1.25,0.36a2.37,2.37,0,0,0-.56.18,2.51,2.51,0,0,0,1,1.67,26.13,26.13,0,0,1,3.73-2.22c-0.34.68,0.13,0.19,0.52,0.07l-0.28-.06a4.18,4.18,0,0,1,1.23-.58h-0.1a0.61,0.61,0,0,1-.29,0c-0.15,0-.28,0-0.23-0.14h0.07a0.81,0.81,0,0,1,.09-0.61h0.6c-1.14-.34,1.86-2,1.89-2.49,0.76-.41-0.19-1,0.19-1.49,0.19-.85.88-0.42,1.4-0.85s-0.7.11-.74-0.11l0.84-.64c0.07,0.38.44,0.17,0.67,0.1,0.1-.56,1.21-1.46,0-1.62,0.58-.77,1.06-0.78,1.12-1.11a1.75,1.75,0,0,1-.66.34c0.53-.31-0.13-0.14-0.25,0-0.5-.44,2.1-2.47.78-2.53h0.24a8,8,0,0,1-2.49-.17l0.43-.23-0.44-.31a0.91,0.91,0,0,1,.7-0.14c-0.48-.51,0-1.26.14-1.91l-2.65.81c0.6-.56,1.81-1.6.94-1.65l0.89-.38c1.63-1.19-.81-0.7-0.33-1.16l0.93-.61v0.54a7,7,0,0,1,1.35-1.3h0a0.27,0.27,0,0,1-.14.06v-0.07a0.77,0.77,0,0,1-.85-0.66c0.09-.55-0.67-0.91.3-1.87l-1-.12,0.54-.71,0.8-.08c0,0.64.41,1.81,0.52,2.63h0.37c0-.49-0.44-1-0.39-1.34a1.66,1.66,0,0,1,1.5-.41l-0.8-.23a4.66,4.66,0,0,1,.4-3.44l-0.38.2c-0.28-.31-0.55-0.62.09-0.79a4,4,0,0,1,1.28-3h-1c0-.22,1.39-0.76.07-0.67l-0.49-.4c0-.31-0.54-0.4-0.06-0.82h0l0.1-.08h-0.08c0.3-.73-0.83.14-0.43-0.71,0.62-.35-1.23-0.08-1.08-0.48l1.27-.6c0.65-.81-0.71-0.69-0.88-1.66a2.94,2.94,0,0,1,2.55-.87c-1.29-.2-0.83,0-1.51-0.51a1.79,1.79,0,0,1,1.07-.1c0.5-.62-0.51-0.23-0.56-0.61a15.24,15.24,0,0,1-2.58.13l-0.26.2c-0.59-.3-0.91-0.68-0.54-1.23l0.48-.08-0.34-.44,0.6-.16-0.34-.66-0.14.13a1,1,0,0,1-.19-1l0.34-.06c0.85-1.1-.65-1.52-1-2.5H739c0.59-.51-1.07.16-0.84-0.33l0.83-.22c-1.19-.1.11-0.52,0.46-0.88l-1.06.39,0.11-.53c0.23-.61,1.3-0.67,1.89-0.73l-1-.14,1-.31c-1.19,0,.11-0.31-0.61-0.61a1.3,1.3,0,0,0,.71-0.27l-1.55-.4,0.72,0.29-1.42.31c-1.19-.18,0-0.67-0.49-0.9l0.48,0.12c-0.48-.45.11-0.64,0.34-1a0.82,0.82,0,0,1-.83.25c-0.12-.14.47-0.22,0.59-0.42-1,.22-1.53,0-1.2-0.5a1.78,1.78,0,0,1,.36-0.06c-0.18,0-.43,0-0.25-0.24l1.06-.2h-1.08c0.22-.28-0.61-0.36.09-0.53l0.24,0-0.21-1.59,0.82-.27c-1.18.19,0.18-1-1.22-.48,0.68-.52-0.88-1,0.76-1.28-0.19-1-1.85-1.1-1.51-2.54,1.2-.87.35-1.91,0.22-2.73-1.09-1.31-1.9-2.11-2.93-3.45,1.48-1.62-1.53-2-.88-3.4h-0.83c0.91-1.13-.92-1.52-0.2-2.89a1.66,1.66,0,0,1-.61-0.19,1.15,1.15,0,0,1-.57.39c0.21-.39-0.42-0.73.5-1.1H731c0.93-.36-0.77-0.59-0.11-1.23l-0.9.59,0-.56h0.24c-3.06-1.11-.48-3.47-3.38-4.46,1.17-.26-0.73-0.11.39-0.7,1.19-1.2-.76-0.75-1.33-1a0.89,0.89,0,0,1-.22.08l-0.21-.76c1.63-.33-1.43.11,0-0.13,0.11-2.35-2.24-4.09-2.91-6.4l-0.3.3c-0.24-.55-1-0.92-0.72-1.65s-1.41-.3-1.56-0.42c-0.86,0,.11-1.17.16-1-0.44-.35-1.94,0-1.79-1,1-1-2.21-.94-0.92-1.79l-0.11.06c0.39-1.37-1.64-1.09-1.38-2.46l0.21-.08-2.49.47-2.47.5-3.9,3.39L706,394.23l-1.27,1.84,1.58,1.56,1.09,1.08,0.47,0.51,0.41,3.82,0.76,1.08,1.56,2.44,1.56,2.45,0.66,1.14h1.3c-1.08,2.39,2,3.27,1.38,5.54l0.92-.38c0.26,0.44-.32.66-0.43,0.85,0.52,1,1.14,2.08,1.71,3.12s1.13,2.09,1.65,3.14c0.26,0.53.51,1,.74,1.58a14.12,14.12,0,0,1,.56,1.62,13.61,13.61,0,0,1,.59,3.27c-0.47.59,0.25,1.65-.32,2.17a5,5,0,0,1,2.25,3.71H723l0.18,0.29,0.17,0.29a0.54,0.54,0,0,1-.26.08c1,0.48.48,1.83,0.35,2.78h-0.12c0.61,2.53,1.48,4.91,2.28,7.32a24.16,24.16,0,0,1,.86,3.69,12.83,12.83,0,0,1,.08,3.87,5.13,5.13,0,0,0,0,3.87,6.45,6.45,0,0,1,.1,4.11c-0.49.29-.36,1.79-0.21,3.29A9.6,9.6,0,0,0,727.25,467.65Z" transform="translate(-425.41 -51.99)"/><path class="40d861b4-9f74-4cf7-aee3-d34805fb68aa" d="M728.58,475.87h0C728.15,475.83,728.31,475.87,728.58,475.87Z" transform="translate(-425.41 -51.99)"/><polygon class="40d861b4-9f74-4cf7-aee3-d34805fb68aa" points="314.48 411.65 314.47 411.69 315.06 411.51 314.48 411.65"/><path class="40d861b4-9f74-4cf7-aee3-d34805fb68aa" d="M740.45,471.7c0.13-.36,0-0.38-0.14-0.33A0.29,0.29,0,0,0,740.45,471.7Z" transform="translate(-425.41 -51.99)"/><path class="40d861b4-9f74-4cf7-aee3-d34805fb68aa" d="M729.26,478.63c0,0.17.21,0.12,0.5,0l-0.06-.31C729.59,478.44,729.36,478.53,729.26,478.63Z" transform="translate(-425.41 -51.99)"/><path class="40d861b4-9f74-4cf7-aee3-d34805fb68aa" d="M735,478.18l0.34,0.07A0.28,0.28,0,0,0,735,478.18Z" transform="translate(-425.41 -51.99)"/><path class="37f3f166-0621-441e-869b-dedee4fb2aff" d="M696,386.08c-25,14.48-40.65,43.75-38.8,72.59" transform="translate(-425.41 -51.99)"/><path class="40d861b4-9f74-4cf7-aee3-d34805fb68aa" d="M682.28,407h0Z" transform="translate(-425.41 -51.99)"/><path class="40d861b4-9f74-4cf7-aee3-d34805fb68aa" d="M670.49,429.62h0l0.45,0.23Z" transform="translate(-425.41 -51.99)"/><path class="40d861b4-9f74-4cf7-aee3-d34805fb68aa" d="M668,433.09h-0.06C668,433.13,668.15,433.17,668,433.09Z" transform="translate(-425.41 -51.99)"/><path class="40d861b4-9f74-4cf7-aee3-d34805fb68aa" d="M672.73,420.2a0.17,0.17,0,0,0,0-.11A0.21,0.21,0,0,1,672.73,420.2Z" transform="translate(-425.41 -51.99)"/><path class="40d861b4-9f74-4cf7-aee3-d34805fb68aa" d="M686.79,400.77h0l0.11,0.06Z" transform="translate(-425.41 -51.99)"/><path class="40d861b4-9f74-4cf7-aee3-d34805fb68aa" d="M687,401.08a0.27,0.27,0,0,1-.18-0.28c-0.26-.13-0.35-0.07-0.33.09A1.32,1.32,0,0,0,687,401.08Z" transform="translate(-425.41 -51.99)"/><path class="40d861b4-9f74-4cf7-aee3-d34805fb68aa" d="M697.38,391.64v0.13A0.6,0.6,0,0,0,697.38,391.64Z" transform="translate(-425.41 -51.99)"/><path class="40d861b4-9f74-4cf7-aee3-d34805fb68aa" d="M659.15,413.48s0-.07,0-0.1A0.08,0.08,0,0,0,659.15,413.48Z" transform="translate(-425.41 -51.99)"/><path class="40d861b4-9f74-4cf7-aee3-d34805fb68aa" d="M695.33,392.57l0.25,0.42A4,4,0,0,0,695.33,392.57Z" transform="translate(-425.41 -51.99)"/><path class="40d861b4-9f74-4cf7-aee3-d34805fb68aa" d="M670.94,429.87l0.17,0.09Z" transform="translate(-425.41 -51.99)"/><path class="40d861b4-9f74-4cf7-aee3-d34805fb68aa" d="M666.63,436.68l-0.37-.07h0Z" transform="translate(-425.41 -51.99)"/><path class="40d861b4-9f74-4cf7-aee3-d34805fb68aa" d="M656.62,455.91h0.19l-0.35-.08A0.27,0.27,0,0,0,656.62,455.91Z" transform="translate(-425.41 -51.99)"/><path class="40d861b4-9f74-4cf7-aee3-d34805fb68aa" d="M663.41,441.42h0.16a0.67,0.67,0,0,0,.3-0.6l-0.59-.13Z" transform="translate(-425.41 -51.99)"/><path class="40d861b4-9f74-4cf7-aee3-d34805fb68aa" id="leg-1" d="M648.63,445.9l1.28-.56c0.26,2.2-.93,3.15-0.06,5.07l-0.26-.12c-0.15.13,0.46,0.26,0.67,0.72s0,1.2-1.67,2.71h-0.12c0,0.11.27,0.11,0,.32l0.73-.52a3,3,0,0,1,1,1,1.29,1.29,0,0,1-.57.13l0.23,1L649,456c0.43,0.3,2.08.11,1.18,1,1.13-.35.7,0.38,1.28,0.26a2.11,2.11,0,0,0-.54.23A2.36,2.36,0,0,0,652,459s0.59-.51,1.33-1.07a12.81,12.81,0,0,1,2.24-1.44c-0.29.66,0.14,0.16,0.53,0h-0.29a4.11,4.11,0,0,1,1.19-.61h-0.1a0.67,0.67,0,0,1-.29,0c-0.15,0-.28,0-0.24-0.11h0.08a0.68,0.68,0,0,1,0-.56h0.6c-1.15-.28,1.68-1.89,1.75-2.24,0.78-.35-0.15-0.83.25-1.28,0.23-.72.9-0.33,1.43-0.68s-0.71.06-.74-0.12l0.86-.5c0.06,0.32.43,0.16,0.66,0.12,0.12-.46,1.26-1.11.07-1.33,0.6-.58,1.08-0.54,1.16-0.8a1.88,1.88,0,0,1-.67.21c0.54-.21-0.13-0.13-0.25,0-0.53-.44,2.41-1.74,1.09-2h0.24a9.28,9.28,0,0,1-2.44-.48l0.46-.13-0.39-.32a1.06,1.06,0,0,1,.71,0c-0.4-.49.21-1,0.4-1.54l-2.73.21c0.67-.38,2-1,1.17-1.23L661,443c1.86-.62-0.62-0.74,0-1l1-.28-0.1.44a6.41,6.41,0,0,1,1.62-.71h0a0.32,0.32,0,0,1-.15,0v-0.06a0.7,0.7,0,0,1-.67-0.73h0c0.22-.41-0.42-0.9.73-1.39l-1-.38,0.68-.4L664,438.7c-0.14.5,0,1.52-.11,2.17l0.36,0.08a9.2,9.2,0,0,1-.07-1.13,2,2,0,0,1,1.54.1l-0.72-.4c0.14-1.29.16-1.31,1.37-2.4H666c-0.16-.32-0.31-0.63.33-0.54A2.85,2.85,0,0,1,668.4,435l-0.88-.37c0.09-.15,1.52,0,0.28-0.44l-0.28-.46c0.14-.2-0.32-0.49.28-0.58h0c0.56-.37-0.81-0.25-0.1-0.66,0.7,0-1.07-.57-0.77-0.79l1.38,0.15c0.9-.25-0.35-0.77-0.11-1.51a3.59,3.59,0,0,1,2.6.62,2.15,2.15,0,0,1-1.13-1,2.38,2.38,0,0,1,1,.45c0.68-.16-0.35-0.38-0.21-0.65a17.54,17.54,0,0,1-2.27-1.17h-0.32c-0.36-.48-0.44-0.9.15-1.07l0.44,0.19-0.07-.46,0.58,0.21v-0.6h-0.18a0.63,0.63,0,0,1,.34-0.75l0.31,0.14c1.26-.22.16-1.32,0.42-2.12l0.59,0.39c0.76,0-1-.52-0.48-0.67l0.79,0.35c-0.89-.74.39-0.24,0.86-0.23l-1.06-.4,0.38-.24c0.52-.21,1.4.39,1.9,0.7l-0.68-.64,0.92,0.39c-1-.69.26-0.1-0.14-0.69a1.7,1.7,0,0,0,.7.28l-1-1.16,0.4,0.6-1.28-.69c-0.82-.84.37-0.39,0.13-0.82l0.3,0.36c-0.12-.56.44-0.29,0.83-0.37a1,1,0,0,1-.77-0.38,2,2,0,0,1,.68.14c-0.84-.47-1.17-1-0.62-1a2.23,2.23,0,0,1,.3.19c-0.1-.14-0.3-0.29,0-0.29l0.91,0.58-0.78-.7c0.34,0-.22-0.58.4-0.21l0.14,0.18,0.84-.94,0.76,0.41c-1-.69.72-0.35-0.58-1.06,0.81,0.21,0-1.08,1.33-.11,0.51-.61-0.67-1.86.58-2.23,1.39,0.47,1.52-.55,2-1a17.6,17.6,0,0,1,.58-3.58c2,0.59.61-1.91,2-1.87l-0.48-.67a0.71,0.71,0,0,0,1-.47,0.92,0.92,0,0,1,1.11-.56,1.49,1.49,0,0,1-.15-0.56,1.45,1.45,0,0,1-.59-0.37c0.41,0.07.37-.55,1.1,0.13V407c0.73,0.68.08-.8,0.89-0.41l-0.88-.61,0.41-.19,0.08,0.22c-0.28-1.45.32-1.81,1-2.06a1.43,1.43,0,0,0,1.15-1.83c0.66,1-.19-0.67.71,0.22,1.41,0.85.31-.8,0.28-1.36a1.12,1.12,0,0,1-.14-0.19l0.54-.32c0.83,1.44-.59-1.29.1,0,2-.16,2.76-2.43,4.54-3.18l-0.32-.28c0.42-.21.59-1,1.27-0.64s0-1.3.07-1.44c-0.1-.81,1,0.12.84,0.16,0.22-.41-0.31-1.84.53-1.68,0.91,1,.59-2,1.46-0.72l-0.07-.11c1.22,0.51.83-1.42,2-1a2.12,2.12,0,0,1,.08.21l-0.5-2.44-0.45-2.47-3-4.15-1.76-1.35-1.8-1.33-1.71,1.62c-0.42.41-.85,0.8-1.16,1.11l-0.5.54-3.93.88-1.08.91-2.24,2.15-2.24,2-0.94,1,0.35,1.28c-2.66-.2-2.64,3-4.9,3.43l0.71,0.7c-0.31.43-.74,0-1,0a36.21,36.21,0,0,0-2.2,3c-0.65,1.06-1.29,2.13-2,3.15-0.33.51-.66,1-1,1.5s-0.64,1-1,1.47a15,15,0,0,1-2.33,2.56c-0.82,0-1.14,1.32-1.9,1.26a5.55,5.55,0,0,1-1.27,4.36l-0.07-.1-0.08.34-0.07.35a0.52,0.52,0,0,1-.25-0.12c0.44,1.09-.86,1.76-1.6,2.45l-0.07-.1c-1.36,2.4-1.91,5.06-2.67,7.58-0.37,1.26-.65,2.56-1.11,3.79a27.45,27.45,0,0,1-1.69,3.68,5.67,5.67,0,0,0-1.49,3.81c-0.16,1.43-.17,2.92-1.12,4.23-0.51.18-1,1.76-1,3.4A10.71,10.71,0,0,0,648.63,445.9Z" transform="translate(-425.41 -51.99)"/><path class="40d861b4-9f74-4cf7-aee3-d34805fb68aa" d="M649.57,454.64h0C649.14,454.62,649.3,454.66,649.57,454.64Z" transform="translate(-425.41 -51.99)"/><polygon class="40d861b4-9f74-4cf7-aee3-d34805fb68aa" points="236.31 392.18 236.3 392.21 236.9 392.17 236.31 392.18"/><path class="40d861b4-9f74-4cf7-aee3-d34805fb68aa" d="M661.47,450.83c0.15-.29,0-0.31-0.13-0.28A0.22,0.22,0,0,0,661.47,450.83Z" transform="translate(-425.41 -51.99)"/><path class="40d861b4-9f74-4cf7-aee3-d34805fb68aa" d="M650.44,457.46c0,0.18.22,0.1,0.5,0l-0.08-.31C650.76,457.24,650.54,457.35,650.44,457.46Z" transform="translate(-425.41 -51.99)"/><path class="40d861b4-9f74-4cf7-aee3-d34805fb68aa" d="M656.11,456.52h0.34A0.29,0.29,0,0,0,656.11,456.52Z" transform="translate(-425.41 -51.99)"/><path class="37f3f166-0621-441e-869b-dedee4fb2aff" d="M707.22,222.43l5.13-2.58h-7.56a13.6,13.6,0,0,0-5.72-.47,100.59,100.59,0,0,0,21.64-1.61,105.31,105.31,0,0,0-17,1l4-1.7a16.22,16.22,0,0,0-8,1.68,19.39,19.39,0,0,0,5.87.75,3.93,3.93,0,0,1-3.06,4,15.41,15.41,0,0,0,5.36.62,8.3,8.3,0,0,0-2.23,3.84,2.86,2.86,0,0,0,2.43.69" transform="translate(-425.41 -51.99)"/><path class="40d861b4-9f74-4cf7-aee3-d34805fb68aa" d="M702,212h0Z" transform="translate(-425.41 -51.99)"/><path class="40d861b4-9f74-4cf7-aee3-d34805fb68aa" d="M700.91,210.38h0l-0.14-.49Z" transform="translate(-425.41 -51.99)"/><path class="40d861b4-9f74-4cf7-aee3-d34805fb68aa" d="M706.54,224.6v-0.05C706.52,224.67,706.53,224.79,706.54,224.6Z" transform="translate(-425.41 -51.99)"/><path class="40d861b4-9f74-4cf7-aee3-d34805fb68aa" d="M704.24,212l0.17,0.08Z" transform="translate(-425.41 -51.99)"/><path class="40d861b4-9f74-4cf7-aee3-d34805fb68aa" d="M700.2,225.51h0v0Z" transform="translate(-425.41 -51.99)"/><path class="40d861b4-9f74-4cf7-aee3-d34805fb68aa" d="M700.18,225.85a0.37,0.37,0,0,1,0-.33c-0.09-.27-0.16-0.28-0.21-0.15A2.06,2.06,0,0,0,700.18,225.85Z" transform="translate(-425.41 -51.99)"/><path class="40d861b4-9f74-4cf7-aee3-d34805fb68aa" d="M706.51,216.73V216.6A0.53,0.53,0,0,0,706.51,216.73Z" transform="translate(-425.41 -51.99)"/><path class="40d861b4-9f74-4cf7-aee3-d34805fb68aa" d="M713.93,217.8h0Z" transform="translate(-425.41 -51.99)"/><path class="40d861b4-9f74-4cf7-aee3-d34805fb68aa" d="M709,215.83l-0.19-.45A3.36,3.36,0,0,0,709,215.83Z" transform="translate(-425.41 -51.99)"/><path class="40d861b4-9f74-4cf7-aee3-d34805fb68aa" d="M700.79,209.88v-0.19A1.9,1.9,0,0,0,700.79,209.88Z" transform="translate(-425.41 -51.99)"/><path class="40d861b4-9f74-4cf7-aee3-d34805fb68aa" d="M704,224.74a0.91,0.91,0,0,0-.13-0.35h0Z" transform="translate(-425.41 -51.99)"/><path class="40d861b4-9f74-4cf7-aee3-d34805fb68aa" d="M705.15,227.37h0.19l-0.3-.2A0.27,0.27,0,0,0,705.15,227.37Z" transform="translate(-425.41 -51.99)"/><path class="40d861b4-9f74-4cf7-aee3-d34805fb68aa" d="M703.94,214.35v-0.17a0.53,0.53,0,0,0-.53-0.23l-0.08.6Z" transform="translate(-425.41 -51.99)"/><path class="40d861b4-9f74-4cf7-aee3-d34805fb68aa" d="M701.75,220.06a1.82,1.82,0,0,0-.11-0.24,1.25,1.25,0,0,1,.15.39l-1.52,10.5c2,0.58,3.41,1.44,5.67.78l-0.16.26c0.31,0.21.53-1.21,2.45-.63l-5.33-12.06c-0.73.42-1.78,0.87-3.29,1.64l-0.1-.07c-0.1.19,0.1,0.31-.39,0.5l0.59-.24,0.59-.21a8,8,0,0,1-.17,2.1,0.87,0.87,0,0,1-.62-0.06s-0.18.45-.33,0.91-0.27.92-.27,0.92l-0.47.15-0.47.16c0.16,0.54,1.14.79,1.07,1.39l-0.58,4.7,2.55,2a7.87,7.87,0,0,1,1.1,1.19c-0.13-.78.27-0.71,0.66-0.58s0.84,0.31.83,0a4.46,4.46,0,0,0,.37.77,7.3,7.3,0,0,0,2.84.32,3.43,3.43,0,0,0,2.14-.8,5.87,5.87,0,0,1-.93-0.28,5.94,5.94,0,0,1-1.76-1.05,4.14,4.14,0,0,1-1.58-3.14c0.74,0.89.28,0,.38-0.37l-0.23.18a0.74,0.74,0,0,1-.08-0.31l-0.34-1.17a10.23,10.23,0,0,1,1.11-.17h-0.19l0.08,0.06a0.59,0.59,0,0,1-.27-0.1c-0.15,0-.26-0.1-0.18-0.2H705a0.84,0.84,0,0,1,.28-0.59l0.56,0.23c-0.47-.36.16-0.72,0.93-0.84a12.63,12.63,0,0,0,1.73-.14c0.51,0.16.48-.15,0.59-0.41l1.85-4.79-3.29,1.54a0.41,0.41,0,0,1-.47,0c-0.72-.18-0.36-0.88-0.68-1.4s0.06,0.71-.11.74l-0.23-.43-0.22-.43c0.28-.05.15-0.43,0.12-0.66-0.41-.13-0.81-1.3-1.12-0.14-0.42-.66-0.29-1.13-0.48-1.24a2.53,2.53,0,0,1,.06.69c-0.08-.56-0.13.11-0.07,0.24-0.19.2-.45-0.29-0.64-0.79l-0.46,9.53c1.52,0.24,3.13-.12,2.83-0.81l0.12,0.21c-0.32-1-1.07-1.61-.91-2.37l0.28,0.07,0.28,0.07,0.16-.68a0.6,0.6,0,0,1,.62.39c0.36-1,1.54-1.62,2.11-2.76a9.56,9.56,0,0,1-1.46,0,9.19,9.19,0,0,1-1.41-.21,3.79,3.79,0,0,0,1.5-.79c0.42-.39.58-0.85,0.16-1a8.82,8.82,0,0,0,.94-0.47,2.59,2.59,0,0,0,.49-0.73L705.37,216c-0.48-.56-0.33,1.18-0.63.74l-0.21-.5-0.19-.5h0.41a4.84,4.84,0,0,1-.8-1.49h0a0.36,0.36,0,0,1,0,.15h0c-0.08.49-.32,0.8-0.6,0.74s-0.82.49-1.25-.65l-0.36,1-0.18-.34-0.17-.35,0.19-.78a7.84,7.84,0,0,0,1.85,0v-0.36a4.38,4.38,0,0,1-.94.14,2.32,2.32,0,0,1,.11-1.54l-0.34.73a2.35,2.35,0,0,1-1-.24l1.07,11.69a2.33,2.33,0,0,1,1.21.32l-0.22-.35c0.09-.28.2-0.57,0.46,0a1.84,1.84,0,0,1,1.72,1.27l-0.08-.94c0.13,0,.45,1.43.34,0.11l0.19-.44c0.15,0.05.22-.48,0.42,0h0v0c0.35,0.41,0-.85.39-0.31,0.12,0.67.16-1.19,0.38-1v0.46l-2-12.55-0.57-.73c-0.89-.46-0.46.83-1.3,1.2a3.1,3.1,0,0,1-1.38-2.3c0.12,1.3.15,0.81-.11,1.57a1.94,1.94,0,0,1-.34-1c-0.67-.36-0.09.54-0.43,0.65a25.55,25.55,0,0,1,.72,2.47,1.42,1.42,0,0,0,.22.23,1,1,0,0,0,0,.37,0.7,0.7,0,0,0,0,.21c0.11,0,.19,0,0.17-0.26l-0.21-.45,0.28,0.2-0.28-.57,0.31,0.15,0.06,0.16c0.09,0.07.42,0.24,0.32-.07l-0.22-.31c-0.21-.5-0.09-0.43.21-0.24a3.64,3.64,0,0,0,1,.54l-0.66-.61c-0.53-.62,1,0.94.82,0.62l-0.79-.75c1.17,1-.08-0.22-0.48-0.59l1.09,1-0.1-.22a21.93,21.93,0,0,0-2.07-1.74l1,0.76-1.08-.85c1.32,1-.19-0.16.56,0.37l-0.88-.64,0.87,0.59,0.92,0.59-0.84-.52,1.77,1.23c1.5,0.93,0-.14.58,0.19l-0.62-.36c0.6,0.29-.2-0.23-0.59-0.5a13.4,13.4,0,0,0,1.18.72c0.16,0.07-.68-0.43-0.87-0.57,1.35,0.81,2.23,1.23,1.68.85l-0.54-.3c0.26,0.13.64,0.34,0.34,0.14l-1.64-.9,1.62,0.85c-0.4-.25.91,0.4-0.24-0.2l-0.37-.18a0.84,0.84,0,0,0-.07-0.22l-1.47-.71c2.08,1-.68-0.37,2,0.85-1.42-.67,1.33.47-1.85-0.91-0.07-.05.7,0.25,1.35,0.49,0.32,0.12.62,0.22,0.74,0.25s0.11,0,0,0l-0.5-.15c-3-1.17-2.11-.78-2.48-0.9a5.61,5.61,0,0,1,1.93,1.52c-1.89-1.15-1.11-.59-0.89-0.25s0.14,0.3-.38-0.09l0.78,0.76c-0.75-.6-0.75-0.52-0.78-0.45s-0.11.16-.68-0.43a3,3,0,0,1,.29.48s0.17,0.18.56,0.67a2.07,2.07,0,0,1-.86-0.89l-0.06-.1c-0.66-1,.14.47-0.45-0.39l0.67,1.06-0.23-.18-0.2-.21c0.38,1.19-.14.94-0.41,0.66s-0.45-.58-0.74.49c0.06-1.16-.12.61-0.15-0.66a0.79,0.79,0,0,0-.21-0.59,0.18,0.18,0,0,0-.25,0l0,0a5.78,5.78,0,0,0-.54,1l0.62,12.82a1.09,1.09,0,0,0,.06-0.56l0.42,0.12c-0.14,1.62.22-1.35,0.07,0a1.76,1.76,0,0,0,1.16.59h0.78c0.06,0,.3.06,0.44,0.09l1,0.24h2.32l0.48,0.1-0.09-.41c0.56,0.08,1.25-.41,1.67.25s0.93-1,1.1-1.11c0.47-.71.88,0.71,0.68,0.64,0.5-.19,1-1.66,1.65-1,0.08,0.51.37,0.45,0.69,0.26L710,215.23c-0.34.53-.6,1.45-1,0.59l0,0.12c-1.27-.57-1.19,1.45-2.47,1a1.79,1.79,0,0,1,0-.22l0.37,5,2.8,4.33,3.37,3,2.83-2.21,26.35-20.58L712.4,212l-1,.19-3.6-1.65-1.5.08H706l-0.29-.05-0.59-.1a22.48,22.48,0,0,0-7.06.07L698.77,228h0.08l0.71-1.14a2.55,2.55,0,0,0,.35.34,3.27,3.27,0,0,0,.6.25,6.62,6.62,0,0,0,1.32.27,12.77,12.77,0,0,0,2.75-.06,13.88,13.88,0,0,1,5.61.09l-0.46-1a2,2,0,0,1,1.51.62,70.24,70.24,0,0,0,9.35-1.76,21.53,21.53,0,0,1,.23-4.82c0.21-1.1.52-1.94,0.71-2.66a0.42,0.42,0,0,0,0-.1h0l-0.88-.34h-1.78c-1.43,0-2.94,0-4.37.08h-0.62c-0.76,0-2,.1-2.88.17h0c-1,.07-2,0.16-3,0.26l-1.46.16-0.73.09c-0.24-.23.07,0.65,0.17,1.12l0.42,1.62,0.41,1.6,0.1,0.4v1.07l-0.1,2.81v0.17h0v-1.12h0.08l0.28-.14,0.16-.09,0.64-.35a28.81,28.81,0,0,1,2.63-1.26l31.54-13.08-34.24-2a55.38,55.38,0,0,0-6.18,0c-2.13-.43-4.28.49-6.22,1.68l-20,12.32L697,227.27a29.42,29.42,0,0,1,5.82,1.33c0.23,0.34,1.34.56,2.76,0.55L702,219.77a1.39,1.39,0,0,1-.55-0.09l-0.19-.09A1.51,1.51,0,0,1,701.75,220.06Z" transform="translate(-425.41 -51.99)"/><path class="40d861b4-9f74-4cf7-aee3-d34805fb68aa" d="M699.52,222.72h0C699.16,222.48,699.27,222.61,699.52,222.72Z" transform="translate(-425.41 -51.99)"/><path class="40d861b4-9f74-4cf7-aee3-d34805fb68aa" d="M708.91,222.36v0.07h0Z" transform="translate(-425.41 -51.99)"/><path class="40d861b4-9f74-4cf7-aee3-d34805fb68aa" d="M706.33,219.88c-0.24-.15-0.26,0-0.24.12a0.18,0.18,0,0,0,.23-0.1v0Z" transform="translate(-425.41 -51.99)"/><path class="40d861b4-9f74-4cf7-aee3-d34805fb68aa" d="M703.77,234.71c0.55,0.25.41-.07,0.21-0.45a7.22,7.22,0,0,1-.94-0.37A9,9,0,0,0,703.77,234.71Z" transform="translate(-425.41 -51.99)"/><path class="40d861b4-9f74-4cf7-aee3-d34805fb68aa" d="M705.08,228.94l0.27-.23a0.24,0.24,0,0,0-.27.21v0Z" transform="translate(-425.41 -51.99)"/><path class="37f3f166-0621-441e-869b-dedee4fb2aff" d="M737.63,152.2a64.17,64.17,0,0,0-58.2-6.36c-4.51,1.77-9,4.26-11.52,8.41-2.74,4.57-2.53,10.29-1.9,15.59,0.86,7.27,2.4,14.63,6.19,20.89,4.93,8.16,13.23,13.74,21.86,17.79,7.16,3.35,14.9,5.86,22.81,5.69s16-3.34,20.82-9.62c4.12-5.37,5.44-12.31,6.54-19,1.73-10.43,2.59-22.84-5.35-29.83" transform="translate(-425.41 -51.99)"/><path class="40d861b4-9f74-4cf7-aee3-d34805fb68aa" d="M675.81,156.17c0.07,0,0-.08,0,0h0Z" transform="translate(-425.41 -51.99)"/><path class="40d861b4-9f74-4cf7-aee3-d34805fb68aa" d="M704.2,203.17h0.06l0.29-.43Z" transform="translate(-425.41 -51.99)"/><path class="40d861b4-9f74-4cf7-aee3-d34805fb68aa" d="M714.22,206.6l0.06,0.06C714.28,206.54,714.3,206.42,714.22,206.6Z" transform="translate(-425.41 -51.99)"/><path class="40d861b4-9f74-4cf7-aee3-d34805fb68aa" d="M681.58,191.68a0.16,0.16,0,0,0-.19-0.07A0.41,0.41,0,0,1,681.58,191.68Z" transform="translate(-425.41 -51.99)"/><path class="40d861b4-9f74-4cf7-aee3-d34805fb68aa" d="M693.46,148.57h0l0.14,0.1Z" transform="translate(-425.41 -51.99)"/><path class="40d861b4-9f74-4cf7-aee3-d34805fb68aa" d="M693.28,148.95c-0.27-.11,0-0.29.13-0.35a0.7,0.7,0,0,0-.86,0C692.61,148.87,693.12,148.74,693.28,148.95Z" transform="translate(-425.41 -51.99)"/><path class="40d861b4-9f74-4cf7-aee3-d34805fb68aa" d="M730.78,154.38l-0.16.05A0.48,0.48,0,0,0,730.78,154.38Z" transform="translate(-425.41 -51.99)"/><path class="40d861b4-9f74-4cf7-aee3-d34805fb68aa" d="M671.51,203.06l-0.21-.11A0.26,0.26,0,0,0,671.51,203.06Z" transform="translate(-425.41 -51.99)"/><path class="40d861b4-9f74-4cf7-aee3-d34805fb68aa" d="M725.44,151.41l-0.25.43A1.5,1.5,0,0,0,725.44,151.41Z" transform="translate(-425.41 -51.99)"/><path class="40d861b4-9f74-4cf7-aee3-d34805fb68aa" d="M704.56,202.76l0.14-.16A1,1,0,0,0,704.56,202.76Z" transform="translate(-425.41 -51.99)"/><path class="40d861b4-9f74-4cf7-aee3-d34805fb68aa" d="M723.22,205.92a1.74,1.74,0,0,0,.16.34h0Z" transform="translate(-425.41 -51.99)"/><path class="40d861b4-9f74-4cf7-aee3-d34805fb68aa" d="M743.86,161.79l-0.16.11,0.41,0.09A0.46,0.46,0,0,0,743.86,161.79Z" transform="translate(-425.41 -51.99)"/><path class="40d861b4-9f74-4cf7-aee3-d34805fb68aa" d="M734.11,200.82l-0.12-.13a3.46,3.46,0,0,0-1,1l0.43,0.42,0.37-.65Z" transform="translate(-425.41 -51.99)"/><path class="40d861b4-9f74-4cf7-aee3-d34805fb68aa" id="head" d="M752.75,188.69l-1.51,1.58c0.13-1.49.3-2.68,0.51-3.81l0.62-3.19a19.85,19.85,0,0,0,.32-6.75l0.25,0.31c0.15-.39-0.41-0.71-0.62-2a10.42,10.42,0,0,1,.07-2.84c0.1-.65.22-1.41,0.39-2.33s0.37-2,.61-3.23h0.12a1.18,1.18,0,0,1-.12-1,8.56,8.56,0,0,1-.21.9l-0.25.87a17.43,17.43,0,0,1-1.52-3,0.77,0.77,0,0,1,.47-0.53l-0.56-1.6a14.64,14.64,0,0,0-.65-1.59l0.34-1.29a3,3,0,0,0-1.41-.54c-0.5-.19-0.87-0.63-1.17-2.12-0.42,1.49-1.34-.86-1.65-0.25a7.77,7.77,0,0,0,.07-0.91,17.75,17.75,0,0,0-2.24-2.29,6.14,6.14,0,0,0-2.23-1.24l0.46,1a13.88,13.88,0,0,1,.86,2.34,12.2,12.2,0,0,1,.5,2.7,6.39,6.39,0,0,1-.07,2c-0.29-.93-0.45-1-0.45-0.81a3.52,3.52,0,0,1-.07.94h0.31c0.25,1.15-.39,1.43-0.37,2l0.17-.11h-0.11a0.26,0.26,0,0,1,.28-0.08c0.14-.07.27-0.07,0.33,0.22h-0.09a5.15,5.15,0,0,1,.51,1.5l-0.57.2c0.63,0.2.67,1.63,0.32,3a18.15,18.15,0,0,1-.56,2,6.07,6.07,0,0,0-.31,1.3,2.08,2.08,0,0,0-.12,1.67,4,4,0,0,1,.09,1.85c-0.23,2-.89,1-1.44,2-0.45,1.22.72-.22,0.73,0.28l-0.92,1.44c0-.87-0.41-0.42-0.66-0.28-0.18,1.27-1.5,3.15-.36,3.69-0.8,1.67-1.28,1.6-1.45,2.33a1.89,1.89,0,0,1,.76-0.65c-0.62.62,0.08,0.35,0.24,0.08,0.39,1.14-3.07,5.23-1.82,5.64h-0.24c0.92,0.43,1.94.21,2.33,1.06l-0.53.41,0.26,0.83a0.49,0.49,0,0,1-.67.16l-0.07,0c0.19,1.3-.73,2.82-1.27,4.12,0,0,.75-0.16,1.5-0.35s1.51-.41,1.51-0.41c-0.92,1.12-2.82,2.78-2.1,3.29l-0.55.18-0.55.17c-1.24.77-1.24,1.16-1,1.52s0.61,0.62.17,0.92c0,0-.35.15-0.71,0.28l-0.7.25,0.28-.48c0.15-.24.27-0.49,0.27-0.49a6.52,6.52,0,0,1-2.45,1.25h0a0.23,0.23,0,0,1,.18,0l-0.06.13a1.19,1.19,0,0,1-.21,1.58c-0.74.69-.85,1.86-2.82,2.15l0.29,1.06s-0.35.09-.71,0.15l-0.7.13-0.45-.66A15,15,0,0,0,733,201.8l-0.26-.25a11.16,11.16,0,0,1-1.49,1.94c-0.31.1-1.41-.13-1.35-0.85l0.09,0.93a9.3,9.3,0,0,1-2.46,1.61,10.1,10.1,0,0,1-3.12.59l0.4,0.28c-0.5.42-1,.87-1.4,0.29a6.6,6.6,0,0,1-5.18-.66l-0.18,1c-0.41,0-1-1.43-1.18-.09l-0.43.21L716,207c-0.56-.06-0.94.44-1.56-0.12h0l-0.12-.12a0.53,0.53,0,0,0,0,.08c-1.26-.53,0,0.86-1.51.17-0.4-.73-0.68,1.14-1.42.81l-0.54-1.45c-1.18-1-1.66.3-3.66-.2a1.82,1.82,0,0,1-.06-2.77c-1.17,1-.59.68-1.88,0.9a1,1,0,0,1,.52-1c-0.79-.87-0.74.24-1.48,0-0.53.84-1.29,2.19-1.57,2.15l0.2,0.39a2.88,2.88,0,0,1-2.79-.78l0.22-.43-1.11-.2,0.18-.59-1.52-.46,0.13,0.24a4.24,4.24,0,0,1-2.07-1l0.17-.3c-1.29-1.81-3.34-1.29-5.37-2.35l0.61-.45c-0.3-1-.73.82-1.34,0l0.41-.76c-1.28.55-.75-0.75-1-1.4l-0.4,1.08-0.73-.76c-0.71-.95.26-1.56,0.72-2l-1.12.31,0.46-.89c-1.11.62-.31-0.46-1.42-0.52,0.17-.34.48-0.37,0.34-0.69l-1,.08-1,.06,1.11,0.1-1,1.06c-1.48.24-.91-1-1.71-1.12h0.65c-1.1-.47-0.69-1-0.93-1.65,0,0.32-.11.82-0.57,0.65-0.3-.17.22-0.49,0.12-0.82a1.16,1.16,0,1,1-1.52-.63c-0.24,0-.48.06-0.52-0.33l0.93-.58-1.17.22c0-.49-1-0.47-0.41-0.88h0.31l-0.26-.39c-0.16-.23-0.37-0.55-0.55-0.87-0.4-.63-0.73-1.29-0.73-1.29l0.7-.5c-1.17.4-.42-1.54-1.65-0.73,0.42-.84-1.53-1.71.13-2.14-0.66-1.75-2.6-2.22-2.55-4.92,1.09-1.24.07-3.51-.08-5.24-0.59-1.58-1.07-2.94-1.51-4.35a37.49,37.49,0,0,1-1.14-4.36,3.13,3.13,0,0,0,.59-3.07c-0.19-1-.37-2,0.37-2.52l-0.32-.3-0.31-.31a1.56,1.56,0,0,0,1.09-1.16,1.48,1.48,0,0,1,1.43-1,1.46,1.46,0,0,1,.09-0.73,0.94,0.94,0,0,1-.6-0.38c0.53,0,1-.9,1.51-0.06v0.15c0.27,0.41.45,0.14,0.7-.19a0.86,0.86,0,0,1,1-.48l-0.79-.77,0.44-.16,0.46-.15-0.12.3a5.24,5.24,0,0,1,2.23-2.05,9,9,0,0,1,2.57-.74c1.72-.36,3.38-0.51,5.33-2.15-0.32,1.26.75-.79,1.1,0.44,1.46,1.32,2-.82,2.89-1.36a0.45,0.45,0,0,1,0-.24l1.68-.11c-0.77,1.75,1-1.51.29,0a18.57,18.57,0,0,0,3.52.15c1.22,0,2.5-.06,3.79-0.15a28.64,28.64,0,0,1,3.93,0,20,20,0,0,1,3.84.52l-0.17-.44c1.26,0.26,2.94,0,3.77.84s2.31-.64,2.71-0.58c1.23-.41,1.83,1.2,1.39,1a8.45,8.45,0,0,0,1.92-.34,2.44,2.44,0,0,1,2.07.45c0,0.73,1.19.74,2.27,0.85s2.12,0.18,1.84.89l0.07-.11a4.43,4.43,0,0,0,2.72,1.41,4.6,4.6,0,0,1,2.77,1.54,1.07,1.07,0,0,1-.21.13s1.56-.51,3.15-0.85l3.28-.7,0.82-2.51,0.77-2.55s-0.41-1.49-.89-3-1.07-3-1.07-3l-1.88-.85c-1.15-.46-2.69-1-4.22-1.62a38.63,38.63,0,0,0-4.29-1.33l-2-.49-1.46-.74c-0.89-.43-2.1-0.93-3.31-1.46s-2.46-.95-3.4-1.31l-1.57-.57-1.09-.14-2.89-.34c-1.19-.12-2.6-0.17-4.09-0.27s-3.1,0-4.7,0-3.2.17-4.69,0.26l-4.07.48-3.94.69s-0.4.34-.79,0.73l-0.77.76c-2.64-.5-5.44.32-8.16,1.39-1.36.58-2.7,1.09-4.08,1.66a37.74,37.74,0,0,1-4.33,1.48l0.3,0.89a2.35,2.35,0,0,1-2.14.39,27.55,27.55,0,0,0-5.15,4.2,22.43,22.43,0,0,0-4.12,6.07,24.55,24.55,0,0,0-1.92,6.69,34.43,34.43,0,0,0-.27,6.06c0.07,1.89.25,3.66,0.45,5.33s0.41,3.21.63,4.83c0.45,3.21,1,6.44,1.61,9.66a8.59,8.59,0,0,0,.57,3.18,9.67,9.67,0,0,1,.7,3c2.91,3.65,5.57,7.68,8.46,11l-0.19-.05s0.38,0.37.78,0.7l0.79,0.68a0.2,0.2,0,0,1-.17.22c2.24,1,4.34,4,6.4,5.94h-0.19a56.1,56.1,0,0,0,10,5.9,86.85,86.85,0,0,0,10.36,4,75.11,75.11,0,0,0,11.26,2.66,57.66,57.66,0,0,0,12.46.62c4.14,0.25,8.58-1.19,12.7-3.62A48.38,48.38,0,0,0,746,208.63a11,11,0,0,0,2.57-3.49,33,33,0,0,0,2.69-6.78A39,39,0,0,0,752.75,188.69Z" transform="translate(-425.41 -51.99)"/><path class="40d861b4-9f74-4cf7-aee3-d34805fb68aa" d="M751.87,163.68v0.07C752.3,163.65,752.12,163.58,751.87,163.68Z" transform="translate(-425.41 -51.99)"/><polygon class="40d861b4-9f74-4cf7-aee3-d34805fb68aa" points="312.91 142.62 312.95 142.54 312.28 142.67 312.91 142.62"/><path class="40d861b4-9f74-4cf7-aee3-d34805fb68aa" d="M741.08,176.21c-0.18.81-.08,0.85,0.1,0.75A1.12,1.12,0,0,0,741.08,176.21Z" transform="translate(-425.41 -51.99)"/><path class="40d861b4-9f74-4cf7-aee3-d34805fb68aa" d="M747.25,155.1c-0.32-.56-0.39-0.2-0.42.26l0.65,0.88C747.38,155.89,747.37,155.47,747.25,155.1Z" transform="translate(-425.41 -51.99)"/><path class="40d861b4-9f74-4cf7-aee3-d34805fb68aa" d="M743.59,160h-0.37C743.42,160.27,743.52,160.2,743.59,160Z" transform="translate(-425.41 -51.99)"/></svg>